M48
;DRILL file {Pcbnew (2013-05-16 BZR 4016)-stable} date 9/23/2013 10:33:31 PM
;FORMAT={-:-/ absolute / inch / decimal}
FMAT,2
INCH,TZ
T1C0.032
T2C0.040
T3C0.047
T4C0.062
T5C0.105
%
G90
G05
M72
T1
X4.1Y-3.5
X4.1Y-3.6
X4.1Y-3.7
X4.1Y-3.8
X4.1Y-3.9
X4.1Y-4.
X4.3Y-3.8
X4.3Y-3.9
X4.3Y-4.
X4.4Y-3.5
X4.4Y-3.6
X4.4Y-3.7
X4.5Y-3.5
X4.5Y-3.6
X4.5Y-3.7
X4.5Y-3.8
X4.5Y-3.9
X4.5Y-4.
X4.7Y-3.8
X4.7Y-3.9
X4.7Y-4.
X4.8Y-3.5
X4.8Y-3.6
X4.8Y-3.7
X4.9Y-3.3
X4.9Y-3.4
X4.9Y-3.5
X4.9Y-3.6
X4.9Y-3.7
X4.9Y-3.8
X4.9Y-3.9
X4.95Y-3.1
X5.15Y-3.1
X5.2Y-3.3
X5.2Y-3.4
X5.2Y-3.5
X5.2Y-3.6
X5.2Y-3.7
X5.2Y-3.8
X5.2Y-3.9
X5.3Y-3.1
X5.3Y-3.4
T2
X5.4Y-3.6
X5.4Y-3.7
X5.4Y-3.8
X5.4Y-3.9
T3
X4.1Y-3.4
X5.4Y-3.4
T4
X4.4Y-3.3
T5
X4.2Y-3.3
X4.4Y-3.1
X4.6Y-3.3
T0
M30
