G04 (created by PCBNEW (2013-05-16 BZR 4016)-stable) date 12/19/2013 7:04:02 PM*
%MOIN*%
G04 Gerber Fmt 3.4, Leading zero omitted, Abs format*
%FSLAX34Y34*%
G01*
G70*
G90*
G04 APERTURE LIST*
%ADD10C,0.00590551*%
%ADD11C,0.055*%
%ADD12R,0.055X0.055*%
%ADD13C,0.16*%
%ADD14C,0.117*%
%ADD15R,0.06X0.06*%
%ADD16C,0.06*%
%ADD17C,0.0866142*%
%ADD18C,0.024*%
%ADD19C,0.019*%
%ADD20C,0.01*%
G04 APERTURE END LIST*
G54D10*
G54D11*
X41000Y-36000D03*
X44000Y-36000D03*
X44000Y-37000D03*
X41000Y-37000D03*
X48000Y-37000D03*
X45000Y-37000D03*
X41000Y-35000D03*
X44000Y-35000D03*
X45000Y-35000D03*
X48000Y-35000D03*
X45000Y-36000D03*
X48000Y-36000D03*
X53000Y-31000D03*
X53000Y-34000D03*
G54D12*
X49000Y-33000D03*
G54D11*
X49000Y-34000D03*
X49000Y-35000D03*
X49000Y-36000D03*
X49000Y-37000D03*
X49000Y-38000D03*
X49000Y-39000D03*
X52000Y-39000D03*
X52000Y-38000D03*
X52000Y-37000D03*
X52000Y-36000D03*
X52000Y-35000D03*
X52000Y-34000D03*
X52000Y-33000D03*
X51500Y-31000D03*
X49500Y-31000D03*
G54D12*
X41000Y-38000D03*
G54D11*
X41000Y-39000D03*
X41000Y-40000D03*
G54D12*
X45000Y-38000D03*
G54D11*
X45000Y-39000D03*
X45000Y-40000D03*
G54D12*
X43000Y-38000D03*
G54D11*
X43000Y-39000D03*
X43000Y-40000D03*
G54D12*
X47000Y-38000D03*
G54D11*
X47000Y-39000D03*
X47000Y-40000D03*
G54D13*
X44000Y-31000D03*
X46000Y-33000D03*
X42000Y-33000D03*
G54D14*
X44000Y-33000D03*
G54D15*
X54000Y-39000D03*
G54D16*
X54000Y-38000D03*
X54000Y-37000D03*
X54000Y-36000D03*
G54D17*
X41000Y-34000D03*
X54000Y-34000D03*
G54D18*
X41000Y-34000D02*
X42000Y-33000D01*
X54000Y-34000D02*
X52000Y-32000D01*
X50500Y-32000D02*
X49500Y-31000D01*
X50500Y-32000D02*
X52000Y-32000D01*
X45500Y-40500D02*
X43500Y-40500D01*
X43500Y-40500D02*
X43000Y-40000D01*
X48000Y-35000D02*
X48500Y-35500D01*
X48500Y-32000D02*
X47000Y-32000D01*
X47000Y-32000D02*
X46000Y-33000D01*
X44000Y-31000D02*
X46000Y-33000D01*
X42000Y-33000D02*
X44000Y-31000D01*
X49000Y-39000D02*
X48500Y-38500D01*
X48500Y-38500D02*
X48500Y-35500D01*
X48500Y-35500D02*
X48500Y-32000D01*
X48500Y-32000D02*
X49500Y-31000D01*
X47000Y-40000D02*
X46500Y-40500D01*
X45500Y-40500D02*
X45000Y-40000D01*
X46500Y-40500D02*
X45500Y-40500D01*
X49000Y-39000D02*
X48500Y-39500D01*
X47500Y-39500D02*
X47000Y-40000D01*
X48500Y-39500D02*
X47500Y-39500D01*
X49500Y-38500D02*
X49000Y-39000D01*
G54D19*
X49000Y-38000D02*
X52000Y-35000D01*
X53000Y-34000D02*
X52000Y-34000D01*
X49000Y-36000D02*
X49500Y-36000D01*
X51500Y-34000D02*
X52000Y-34000D01*
X49500Y-36000D02*
X51500Y-34000D01*
G54D10*
G36*
X54799Y-40446D02*
X54794Y-40459D01*
X54764Y-40609D01*
X54702Y-40702D01*
X54687Y-40712D01*
X54687Y-34113D01*
X54678Y-33841D01*
X54591Y-33632D01*
X54482Y-33588D01*
X54411Y-33659D01*
X54411Y-33517D01*
X54367Y-33408D01*
X54113Y-33312D01*
X53841Y-33321D01*
X53632Y-33408D01*
X53588Y-33517D01*
X54000Y-33929D01*
X54411Y-33517D01*
X54411Y-33659D01*
X54070Y-34000D01*
X54482Y-34411D01*
X54591Y-34367D01*
X54687Y-34113D01*
X54687Y-40712D01*
X54609Y-40764D01*
X54490Y-40788D01*
X54490Y-37902D01*
X54490Y-36902D01*
X54490Y-35902D01*
X54415Y-35722D01*
X54411Y-35718D01*
X54411Y-34482D01*
X54000Y-34070D01*
X53929Y-34141D01*
X53929Y-34000D01*
X53517Y-33588D01*
X53465Y-33609D01*
X53465Y-30907D01*
X53394Y-30736D01*
X53263Y-30606D01*
X53092Y-30535D01*
X52907Y-30534D01*
X52736Y-30605D01*
X52606Y-30736D01*
X52535Y-30907D01*
X52534Y-31092D01*
X52605Y-31263D01*
X52736Y-31393D01*
X52907Y-31464D01*
X53092Y-31465D01*
X53263Y-31394D01*
X53393Y-31263D01*
X53464Y-31092D01*
X53465Y-30907D01*
X53465Y-33609D01*
X53408Y-33632D01*
X53376Y-33718D01*
X53263Y-33606D01*
X53092Y-33535D01*
X52907Y-33534D01*
X52736Y-33605D01*
X52627Y-33715D01*
X52465Y-33715D01*
X52465Y-32907D01*
X52394Y-32736D01*
X52263Y-32606D01*
X52092Y-32535D01*
X51965Y-32534D01*
X51965Y-30907D01*
X51894Y-30736D01*
X51763Y-30606D01*
X51592Y-30535D01*
X51407Y-30534D01*
X51236Y-30605D01*
X51106Y-30736D01*
X51035Y-30907D01*
X51034Y-31092D01*
X51105Y-31263D01*
X51236Y-31393D01*
X51407Y-31464D01*
X51592Y-31465D01*
X51763Y-31394D01*
X51893Y-31263D01*
X51964Y-31092D01*
X51965Y-30907D01*
X51965Y-32534D01*
X51907Y-32534D01*
X51736Y-32605D01*
X51606Y-32736D01*
X51535Y-32907D01*
X51534Y-33092D01*
X51605Y-33263D01*
X51736Y-33393D01*
X51907Y-33464D01*
X52092Y-33465D01*
X52263Y-33394D01*
X52393Y-33263D01*
X52464Y-33092D01*
X52465Y-32907D01*
X52465Y-33715D01*
X52372Y-33715D01*
X52263Y-33606D01*
X52092Y-33535D01*
X51907Y-33534D01*
X51736Y-33605D01*
X51627Y-33715D01*
X51500Y-33715D01*
X51499Y-33715D01*
X51390Y-33736D01*
X51298Y-33798D01*
X51298Y-33798D01*
X50029Y-35067D01*
X50029Y-31075D01*
X50018Y-30867D01*
X49960Y-30727D01*
X49867Y-30702D01*
X49797Y-30773D01*
X49797Y-30632D01*
X49772Y-30539D01*
X49575Y-30470D01*
X49367Y-30481D01*
X49227Y-30539D01*
X49202Y-30632D01*
X49500Y-30929D01*
X49797Y-30632D01*
X49797Y-30773D01*
X49570Y-31000D01*
X49867Y-31297D01*
X49960Y-31272D01*
X50029Y-31075D01*
X50029Y-35067D01*
X49797Y-35299D01*
X49797Y-31367D01*
X49500Y-31070D01*
X49429Y-31141D01*
X49429Y-31000D01*
X49132Y-30702D01*
X49039Y-30727D01*
X48970Y-30924D01*
X48981Y-31132D01*
X49039Y-31272D01*
X49132Y-31297D01*
X49429Y-31000D01*
X49429Y-31141D01*
X49202Y-31367D01*
X49227Y-31460D01*
X49424Y-31529D01*
X49632Y-31518D01*
X49772Y-31460D01*
X49797Y-31367D01*
X49797Y-35299D01*
X49465Y-35631D01*
X49465Y-34907D01*
X49465Y-33907D01*
X49465Y-33907D01*
X49465Y-33237D01*
X49465Y-32687D01*
X49436Y-32617D01*
X49382Y-32564D01*
X49312Y-32535D01*
X49237Y-32534D01*
X48687Y-32534D01*
X48617Y-32563D01*
X48564Y-32617D01*
X48535Y-32687D01*
X48534Y-32762D01*
X48534Y-33312D01*
X48563Y-33382D01*
X48617Y-33435D01*
X48687Y-33464D01*
X48762Y-33465D01*
X49312Y-33465D01*
X49382Y-33436D01*
X49435Y-33382D01*
X49464Y-33312D01*
X49465Y-33237D01*
X49465Y-33907D01*
X49394Y-33736D01*
X49263Y-33606D01*
X49092Y-33535D01*
X48907Y-33534D01*
X48736Y-33605D01*
X48606Y-33736D01*
X48535Y-33907D01*
X48534Y-34092D01*
X48605Y-34263D01*
X48736Y-34393D01*
X48907Y-34464D01*
X49092Y-34465D01*
X49263Y-34394D01*
X49393Y-34263D01*
X49464Y-34092D01*
X49465Y-33907D01*
X49465Y-34907D01*
X49394Y-34736D01*
X49263Y-34606D01*
X49092Y-34535D01*
X48907Y-34534D01*
X48736Y-34605D01*
X48606Y-34736D01*
X48535Y-34907D01*
X48534Y-35092D01*
X48605Y-35263D01*
X48736Y-35393D01*
X48907Y-35464D01*
X49092Y-35465D01*
X49263Y-35394D01*
X49393Y-35263D01*
X49464Y-35092D01*
X49465Y-34907D01*
X49465Y-35631D01*
X49381Y-35715D01*
X49372Y-35715D01*
X49263Y-35606D01*
X49092Y-35535D01*
X48907Y-35534D01*
X48736Y-35605D01*
X48606Y-35736D01*
X48535Y-35907D01*
X48534Y-36092D01*
X48605Y-36263D01*
X48736Y-36393D01*
X48907Y-36464D01*
X49092Y-36465D01*
X49263Y-36394D01*
X49372Y-36285D01*
X49499Y-36285D01*
X49500Y-36285D01*
X49500Y-36285D01*
X49590Y-36266D01*
X49609Y-36263D01*
X49609Y-36263D01*
X49701Y-36201D01*
X51618Y-34285D01*
X51627Y-34285D01*
X51736Y-34393D01*
X51907Y-34464D01*
X52092Y-34465D01*
X52263Y-34394D01*
X52372Y-34285D01*
X52627Y-34285D01*
X52736Y-34393D01*
X52907Y-34464D01*
X53092Y-34465D01*
X53263Y-34394D01*
X53373Y-34283D01*
X53408Y-34367D01*
X53517Y-34411D01*
X53929Y-34000D01*
X53929Y-34141D01*
X53588Y-34482D01*
X53632Y-34591D01*
X53886Y-34687D01*
X54158Y-34678D01*
X54367Y-34591D01*
X54411Y-34482D01*
X54411Y-35718D01*
X54277Y-35584D01*
X54097Y-35510D01*
X53902Y-35509D01*
X53722Y-35584D01*
X53584Y-35722D01*
X53510Y-35902D01*
X53509Y-36097D01*
X53584Y-36277D01*
X53722Y-36415D01*
X53902Y-36489D01*
X54097Y-36490D01*
X54277Y-36415D01*
X54415Y-36277D01*
X54489Y-36097D01*
X54490Y-35902D01*
X54490Y-36902D01*
X54415Y-36722D01*
X54277Y-36584D01*
X54097Y-36510D01*
X53902Y-36509D01*
X53722Y-36584D01*
X53584Y-36722D01*
X53510Y-36902D01*
X53509Y-37097D01*
X53584Y-37277D01*
X53722Y-37415D01*
X53902Y-37489D01*
X54097Y-37490D01*
X54277Y-37415D01*
X54415Y-37277D01*
X54489Y-37097D01*
X54490Y-36902D01*
X54490Y-37902D01*
X54415Y-37722D01*
X54277Y-37584D01*
X54097Y-37510D01*
X53902Y-37509D01*
X53722Y-37584D01*
X53584Y-37722D01*
X53510Y-37902D01*
X53509Y-38097D01*
X53584Y-38277D01*
X53722Y-38415D01*
X53902Y-38489D01*
X54097Y-38490D01*
X54277Y-38415D01*
X54415Y-38277D01*
X54489Y-38097D01*
X54490Y-37902D01*
X54490Y-40788D01*
X54490Y-40788D01*
X54490Y-39262D01*
X54490Y-38662D01*
X54461Y-38592D01*
X54407Y-38539D01*
X54337Y-38510D01*
X54262Y-38509D01*
X53662Y-38509D01*
X53592Y-38538D01*
X53539Y-38592D01*
X53510Y-38662D01*
X53509Y-38737D01*
X53509Y-39337D01*
X53538Y-39407D01*
X53592Y-39460D01*
X53662Y-39489D01*
X53737Y-39490D01*
X54337Y-39490D01*
X54407Y-39461D01*
X54460Y-39407D01*
X54489Y-39337D01*
X54490Y-39262D01*
X54490Y-40788D01*
X54479Y-40790D01*
X52465Y-40790D01*
X52465Y-38907D01*
X52465Y-37907D01*
X52465Y-36907D01*
X52465Y-35907D01*
X52394Y-35736D01*
X52263Y-35606D01*
X52092Y-35535D01*
X51907Y-35534D01*
X51840Y-35562D01*
X51938Y-35464D01*
X52092Y-35465D01*
X52263Y-35394D01*
X52393Y-35263D01*
X52464Y-35092D01*
X52465Y-34907D01*
X52394Y-34736D01*
X52263Y-34606D01*
X52092Y-34535D01*
X51907Y-34534D01*
X51736Y-34605D01*
X51606Y-34736D01*
X51535Y-34907D01*
X51534Y-35062D01*
X49437Y-37159D01*
X49464Y-37092D01*
X49465Y-36907D01*
X49394Y-36736D01*
X49263Y-36606D01*
X49092Y-36535D01*
X48907Y-36534D01*
X48736Y-36605D01*
X48606Y-36736D01*
X48535Y-36907D01*
X48534Y-37092D01*
X48605Y-37263D01*
X48736Y-37393D01*
X48907Y-37464D01*
X49092Y-37465D01*
X49159Y-37437D01*
X49061Y-37535D01*
X48907Y-37534D01*
X48736Y-37605D01*
X48606Y-37736D01*
X48535Y-37907D01*
X48534Y-38092D01*
X48605Y-38263D01*
X48736Y-38393D01*
X48907Y-38464D01*
X49092Y-38465D01*
X49263Y-38394D01*
X49393Y-38263D01*
X49464Y-38092D01*
X49465Y-37937D01*
X51562Y-35840D01*
X51535Y-35907D01*
X51534Y-36092D01*
X51605Y-36263D01*
X51736Y-36393D01*
X51907Y-36464D01*
X52092Y-36465D01*
X52263Y-36394D01*
X52393Y-36263D01*
X52464Y-36092D01*
X52465Y-35907D01*
X52465Y-36907D01*
X52394Y-36736D01*
X52263Y-36606D01*
X52092Y-36535D01*
X51907Y-36534D01*
X51736Y-36605D01*
X51606Y-36736D01*
X51535Y-36907D01*
X51534Y-37092D01*
X51605Y-37263D01*
X51736Y-37393D01*
X51907Y-37464D01*
X52092Y-37465D01*
X52263Y-37394D01*
X52393Y-37263D01*
X52464Y-37092D01*
X52465Y-36907D01*
X52465Y-37907D01*
X52394Y-37736D01*
X52263Y-37606D01*
X52092Y-37535D01*
X51907Y-37534D01*
X51736Y-37605D01*
X51606Y-37736D01*
X51535Y-37907D01*
X51534Y-38092D01*
X51605Y-38263D01*
X51736Y-38393D01*
X51907Y-38464D01*
X52092Y-38465D01*
X52263Y-38394D01*
X52393Y-38263D01*
X52464Y-38092D01*
X52465Y-37907D01*
X52465Y-38907D01*
X52394Y-38736D01*
X52263Y-38606D01*
X52092Y-38535D01*
X51907Y-38534D01*
X51736Y-38605D01*
X51606Y-38736D01*
X51535Y-38907D01*
X51534Y-39092D01*
X51605Y-39263D01*
X51736Y-39393D01*
X51907Y-39464D01*
X52092Y-39465D01*
X52263Y-39394D01*
X52393Y-39263D01*
X52464Y-39092D01*
X52465Y-38907D01*
X52465Y-40790D01*
X49529Y-40790D01*
X49529Y-39075D01*
X49518Y-38867D01*
X49460Y-38727D01*
X49367Y-38702D01*
X49297Y-38773D01*
X49297Y-38632D01*
X49272Y-38539D01*
X49075Y-38470D01*
X48867Y-38481D01*
X48727Y-38539D01*
X48702Y-38632D01*
X49000Y-38929D01*
X49297Y-38632D01*
X49297Y-38773D01*
X49070Y-39000D01*
X49367Y-39297D01*
X49460Y-39272D01*
X49529Y-39075D01*
X49529Y-40790D01*
X49297Y-40790D01*
X49297Y-39367D01*
X49000Y-39070D01*
X48929Y-39141D01*
X48929Y-39000D01*
X48632Y-38702D01*
X48539Y-38727D01*
X48529Y-38754D01*
X48529Y-35075D01*
X48518Y-34867D01*
X48460Y-34727D01*
X48367Y-34702D01*
X48297Y-34773D01*
X48297Y-34632D01*
X48272Y-34539D01*
X48075Y-34470D01*
X47867Y-34481D01*
X47727Y-34539D01*
X47702Y-34632D01*
X48000Y-34929D01*
X48297Y-34632D01*
X48297Y-34773D01*
X48070Y-35000D01*
X48367Y-35297D01*
X48460Y-35272D01*
X48529Y-35075D01*
X48529Y-38754D01*
X48470Y-38924D01*
X48481Y-39132D01*
X48539Y-39272D01*
X48632Y-39297D01*
X48929Y-39000D01*
X48929Y-39141D01*
X48702Y-39367D01*
X48727Y-39460D01*
X48924Y-39529D01*
X49132Y-39518D01*
X49272Y-39460D01*
X49297Y-39367D01*
X49297Y-40790D01*
X48465Y-40790D01*
X48465Y-36907D01*
X48465Y-35907D01*
X48394Y-35736D01*
X48297Y-35639D01*
X48297Y-35367D01*
X48000Y-35070D01*
X47929Y-35141D01*
X47929Y-35000D01*
X47632Y-34702D01*
X47539Y-34727D01*
X47470Y-34924D01*
X47481Y-35132D01*
X47539Y-35272D01*
X47632Y-35297D01*
X47929Y-35000D01*
X47929Y-35141D01*
X47702Y-35367D01*
X47727Y-35460D01*
X47924Y-35529D01*
X48132Y-35518D01*
X48272Y-35460D01*
X48297Y-35367D01*
X48297Y-35639D01*
X48263Y-35606D01*
X48092Y-35535D01*
X47907Y-35534D01*
X47736Y-35605D01*
X47606Y-35736D01*
X47535Y-35907D01*
X47534Y-36092D01*
X47605Y-36263D01*
X47736Y-36393D01*
X47907Y-36464D01*
X48092Y-36465D01*
X48263Y-36394D01*
X48393Y-36263D01*
X48464Y-36092D01*
X48465Y-35907D01*
X48465Y-36907D01*
X48394Y-36736D01*
X48263Y-36606D01*
X48092Y-36535D01*
X47907Y-36534D01*
X47736Y-36605D01*
X47606Y-36736D01*
X47535Y-36907D01*
X47534Y-37092D01*
X47605Y-37263D01*
X47736Y-37393D01*
X47907Y-37464D01*
X48092Y-37465D01*
X48263Y-37394D01*
X48393Y-37263D01*
X48464Y-37092D01*
X48465Y-36907D01*
X48465Y-40790D01*
X47529Y-40790D01*
X47529Y-40075D01*
X47518Y-39867D01*
X47465Y-39738D01*
X47465Y-38907D01*
X47465Y-38907D01*
X47465Y-38237D01*
X47465Y-37687D01*
X47436Y-37617D01*
X47382Y-37564D01*
X47312Y-37535D01*
X47237Y-37534D01*
X47051Y-37534D01*
X47051Y-33201D01*
X47048Y-32783D01*
X46894Y-32411D01*
X46747Y-32323D01*
X46676Y-32394D01*
X46676Y-32252D01*
X46588Y-32105D01*
X46201Y-31948D01*
X45783Y-31951D01*
X45411Y-32105D01*
X45323Y-32252D01*
X46000Y-32929D01*
X46676Y-32252D01*
X46676Y-32394D01*
X46070Y-33000D01*
X46747Y-33676D01*
X46894Y-33588D01*
X47051Y-33201D01*
X47051Y-37534D01*
X46687Y-37534D01*
X46676Y-37539D01*
X46676Y-33747D01*
X46000Y-33070D01*
X45929Y-33141D01*
X45929Y-33000D01*
X45252Y-32323D01*
X45105Y-32411D01*
X45051Y-32544D01*
X45051Y-31201D01*
X45048Y-30783D01*
X44894Y-30411D01*
X44747Y-30323D01*
X44070Y-31000D01*
X44747Y-31676D01*
X44894Y-31588D01*
X45051Y-31201D01*
X45051Y-32544D01*
X44948Y-32798D01*
X44951Y-33216D01*
X45105Y-33588D01*
X45252Y-33676D01*
X45929Y-33000D01*
X45929Y-33141D01*
X45323Y-33747D01*
X45411Y-33894D01*
X45798Y-34051D01*
X46216Y-34048D01*
X46588Y-33894D01*
X46676Y-33747D01*
X46676Y-37539D01*
X46617Y-37563D01*
X46564Y-37617D01*
X46535Y-37687D01*
X46534Y-37762D01*
X46534Y-38312D01*
X46563Y-38382D01*
X46617Y-38435D01*
X46687Y-38464D01*
X46762Y-38465D01*
X47312Y-38465D01*
X47382Y-38436D01*
X47435Y-38382D01*
X47464Y-38312D01*
X47465Y-38237D01*
X47465Y-38907D01*
X47394Y-38736D01*
X47263Y-38606D01*
X47092Y-38535D01*
X46907Y-38534D01*
X46736Y-38605D01*
X46606Y-38736D01*
X46535Y-38907D01*
X46534Y-39092D01*
X46605Y-39263D01*
X46736Y-39393D01*
X46907Y-39464D01*
X47092Y-39465D01*
X47263Y-39394D01*
X47393Y-39263D01*
X47464Y-39092D01*
X47465Y-38907D01*
X47465Y-39738D01*
X47460Y-39727D01*
X47367Y-39702D01*
X47297Y-39773D01*
X47297Y-39632D01*
X47272Y-39539D01*
X47075Y-39470D01*
X46867Y-39481D01*
X46727Y-39539D01*
X46702Y-39632D01*
X47000Y-39929D01*
X47297Y-39632D01*
X47297Y-39773D01*
X47070Y-40000D01*
X47367Y-40297D01*
X47460Y-40272D01*
X47529Y-40075D01*
X47529Y-40790D01*
X47297Y-40790D01*
X47297Y-40367D01*
X47000Y-40070D01*
X46929Y-40141D01*
X46929Y-40000D01*
X46632Y-39702D01*
X46539Y-39727D01*
X46470Y-39924D01*
X46481Y-40132D01*
X46539Y-40272D01*
X46632Y-40297D01*
X46929Y-40000D01*
X46929Y-40141D01*
X46702Y-40367D01*
X46727Y-40460D01*
X46924Y-40529D01*
X47132Y-40518D01*
X47272Y-40460D01*
X47297Y-40367D01*
X47297Y-40790D01*
X45529Y-40790D01*
X45529Y-40075D01*
X45518Y-39867D01*
X45465Y-39738D01*
X45465Y-38907D01*
X45465Y-36907D01*
X45465Y-35907D01*
X45465Y-34907D01*
X45394Y-34736D01*
X45263Y-34606D01*
X45092Y-34535D01*
X44907Y-34534D01*
X44775Y-34589D01*
X44775Y-32846D01*
X44676Y-32608D01*
X44676Y-31747D01*
X44000Y-31070D01*
X43929Y-31141D01*
X43929Y-31000D01*
X43252Y-30323D01*
X43105Y-30411D01*
X42948Y-30798D01*
X42951Y-31216D01*
X43105Y-31588D01*
X43252Y-31676D01*
X43929Y-31000D01*
X43929Y-31141D01*
X43323Y-31747D01*
X43411Y-31894D01*
X43798Y-32051D01*
X44216Y-32048D01*
X44588Y-31894D01*
X44676Y-31747D01*
X44676Y-32608D01*
X44657Y-32561D01*
X44439Y-32343D01*
X44154Y-32225D01*
X43846Y-32224D01*
X43561Y-32342D01*
X43343Y-32560D01*
X43225Y-32845D01*
X43224Y-33153D01*
X43342Y-33438D01*
X43560Y-33656D01*
X43845Y-33774D01*
X44153Y-33775D01*
X44438Y-33657D01*
X44656Y-33439D01*
X44774Y-33154D01*
X44775Y-32846D01*
X44775Y-34589D01*
X44736Y-34605D01*
X44606Y-34736D01*
X44535Y-34907D01*
X44534Y-35092D01*
X44605Y-35263D01*
X44736Y-35393D01*
X44907Y-35464D01*
X45092Y-35465D01*
X45263Y-35394D01*
X45393Y-35263D01*
X45464Y-35092D01*
X45465Y-34907D01*
X45465Y-35907D01*
X45394Y-35736D01*
X45263Y-35606D01*
X45092Y-35535D01*
X44907Y-35534D01*
X44736Y-35605D01*
X44606Y-35736D01*
X44535Y-35907D01*
X44534Y-36092D01*
X44605Y-36263D01*
X44736Y-36393D01*
X44907Y-36464D01*
X45092Y-36465D01*
X45263Y-36394D01*
X45393Y-36263D01*
X45464Y-36092D01*
X45465Y-35907D01*
X45465Y-36907D01*
X45394Y-36736D01*
X45263Y-36606D01*
X45092Y-36535D01*
X44907Y-36534D01*
X44736Y-36605D01*
X44606Y-36736D01*
X44535Y-36907D01*
X44534Y-37092D01*
X44605Y-37263D01*
X44736Y-37393D01*
X44907Y-37464D01*
X45092Y-37465D01*
X45263Y-37394D01*
X45393Y-37263D01*
X45464Y-37092D01*
X45465Y-36907D01*
X45465Y-38907D01*
X45465Y-38907D01*
X45465Y-38237D01*
X45465Y-37687D01*
X45436Y-37617D01*
X45382Y-37564D01*
X45312Y-37535D01*
X45237Y-37534D01*
X44687Y-37534D01*
X44617Y-37563D01*
X44564Y-37617D01*
X44535Y-37687D01*
X44534Y-37762D01*
X44534Y-38312D01*
X44563Y-38382D01*
X44617Y-38435D01*
X44687Y-38464D01*
X44762Y-38465D01*
X45312Y-38465D01*
X45382Y-38436D01*
X45435Y-38382D01*
X45464Y-38312D01*
X45465Y-38237D01*
X45465Y-38907D01*
X45394Y-38736D01*
X45263Y-38606D01*
X45092Y-38535D01*
X44907Y-38534D01*
X44736Y-38605D01*
X44606Y-38736D01*
X44535Y-38907D01*
X44534Y-39092D01*
X44605Y-39263D01*
X44736Y-39393D01*
X44907Y-39464D01*
X45092Y-39465D01*
X45263Y-39394D01*
X45393Y-39263D01*
X45464Y-39092D01*
X45465Y-38907D01*
X45465Y-39738D01*
X45460Y-39727D01*
X45367Y-39702D01*
X45297Y-39773D01*
X45297Y-39632D01*
X45272Y-39539D01*
X45075Y-39470D01*
X44867Y-39481D01*
X44727Y-39539D01*
X44702Y-39632D01*
X45000Y-39929D01*
X45297Y-39632D01*
X45297Y-39773D01*
X45070Y-40000D01*
X45367Y-40297D01*
X45460Y-40272D01*
X45529Y-40075D01*
X45529Y-40790D01*
X45297Y-40790D01*
X45297Y-40367D01*
X45000Y-40070D01*
X44929Y-40141D01*
X44929Y-40000D01*
X44632Y-39702D01*
X44539Y-39727D01*
X44470Y-39924D01*
X44481Y-40132D01*
X44539Y-40272D01*
X44632Y-40297D01*
X44929Y-40000D01*
X44929Y-40141D01*
X44702Y-40367D01*
X44727Y-40460D01*
X44924Y-40529D01*
X45132Y-40518D01*
X45272Y-40460D01*
X45297Y-40367D01*
X45297Y-40790D01*
X44465Y-40790D01*
X44465Y-36907D01*
X44465Y-35907D01*
X44465Y-34907D01*
X44394Y-34736D01*
X44263Y-34606D01*
X44092Y-34535D01*
X43907Y-34534D01*
X43736Y-34605D01*
X43606Y-34736D01*
X43535Y-34907D01*
X43534Y-35092D01*
X43605Y-35263D01*
X43736Y-35393D01*
X43907Y-35464D01*
X44092Y-35465D01*
X44263Y-35394D01*
X44393Y-35263D01*
X44464Y-35092D01*
X44465Y-34907D01*
X44465Y-35907D01*
X44394Y-35736D01*
X44263Y-35606D01*
X44092Y-35535D01*
X43907Y-35534D01*
X43736Y-35605D01*
X43606Y-35736D01*
X43535Y-35907D01*
X43534Y-36092D01*
X43605Y-36263D01*
X43736Y-36393D01*
X43907Y-36464D01*
X44092Y-36465D01*
X44263Y-36394D01*
X44393Y-36263D01*
X44464Y-36092D01*
X44465Y-35907D01*
X44465Y-36907D01*
X44394Y-36736D01*
X44263Y-36606D01*
X44092Y-36535D01*
X43907Y-36534D01*
X43736Y-36605D01*
X43606Y-36736D01*
X43535Y-36907D01*
X43534Y-37092D01*
X43605Y-37263D01*
X43736Y-37393D01*
X43907Y-37464D01*
X44092Y-37465D01*
X44263Y-37394D01*
X44393Y-37263D01*
X44464Y-37092D01*
X44465Y-36907D01*
X44465Y-40790D01*
X43529Y-40790D01*
X43529Y-40075D01*
X43518Y-39867D01*
X43465Y-39738D01*
X43465Y-38907D01*
X43465Y-38907D01*
X43465Y-38237D01*
X43465Y-37687D01*
X43436Y-37617D01*
X43382Y-37564D01*
X43312Y-37535D01*
X43237Y-37534D01*
X43051Y-37534D01*
X43051Y-33201D01*
X43048Y-32783D01*
X42894Y-32411D01*
X42747Y-32323D01*
X42676Y-32394D01*
X42676Y-32252D01*
X42588Y-32105D01*
X42201Y-31948D01*
X41783Y-31951D01*
X41411Y-32105D01*
X41323Y-32252D01*
X42000Y-32929D01*
X42676Y-32252D01*
X42676Y-32394D01*
X42070Y-33000D01*
X42747Y-33676D01*
X42894Y-33588D01*
X43051Y-33201D01*
X43051Y-37534D01*
X42687Y-37534D01*
X42676Y-37539D01*
X42676Y-33747D01*
X42000Y-33070D01*
X41929Y-33141D01*
X41929Y-33000D01*
X41252Y-32323D01*
X41105Y-32411D01*
X40948Y-32798D01*
X40951Y-33216D01*
X40993Y-33316D01*
X40841Y-33321D01*
X40632Y-33408D01*
X40588Y-33517D01*
X41000Y-33929D01*
X41252Y-33676D01*
X41411Y-33517D01*
X41929Y-33000D01*
X41929Y-33141D01*
X41482Y-33588D01*
X41323Y-33747D01*
X41070Y-34000D01*
X41482Y-34411D01*
X41591Y-34367D01*
X41687Y-34113D01*
X41683Y-34004D01*
X41798Y-34051D01*
X42216Y-34048D01*
X42588Y-33894D01*
X42676Y-33747D01*
X42676Y-37539D01*
X42617Y-37563D01*
X42564Y-37617D01*
X42535Y-37687D01*
X42534Y-37762D01*
X42534Y-38312D01*
X42563Y-38382D01*
X42617Y-38435D01*
X42687Y-38464D01*
X42762Y-38465D01*
X43312Y-38465D01*
X43382Y-38436D01*
X43435Y-38382D01*
X43464Y-38312D01*
X43465Y-38237D01*
X43465Y-38907D01*
X43394Y-38736D01*
X43263Y-38606D01*
X43092Y-38535D01*
X42907Y-38534D01*
X42736Y-38605D01*
X42606Y-38736D01*
X42535Y-38907D01*
X42534Y-39092D01*
X42605Y-39263D01*
X42736Y-39393D01*
X42907Y-39464D01*
X43092Y-39465D01*
X43263Y-39394D01*
X43393Y-39263D01*
X43464Y-39092D01*
X43465Y-38907D01*
X43465Y-39738D01*
X43460Y-39727D01*
X43367Y-39702D01*
X43297Y-39773D01*
X43297Y-39632D01*
X43272Y-39539D01*
X43075Y-39470D01*
X42867Y-39481D01*
X42727Y-39539D01*
X42702Y-39632D01*
X43000Y-39929D01*
X43297Y-39632D01*
X43297Y-39773D01*
X43070Y-40000D01*
X43367Y-40297D01*
X43460Y-40272D01*
X43529Y-40075D01*
X43529Y-40790D01*
X43297Y-40790D01*
X43297Y-40367D01*
X43000Y-40070D01*
X42929Y-40141D01*
X42929Y-40000D01*
X42632Y-39702D01*
X42539Y-39727D01*
X42470Y-39924D01*
X42481Y-40132D01*
X42539Y-40272D01*
X42632Y-40297D01*
X42929Y-40000D01*
X42929Y-40141D01*
X42702Y-40367D01*
X42727Y-40460D01*
X42924Y-40529D01*
X43132Y-40518D01*
X43272Y-40460D01*
X43297Y-40367D01*
X43297Y-40790D01*
X41465Y-40790D01*
X41465Y-39907D01*
X41465Y-38907D01*
X41465Y-36907D01*
X41465Y-35907D01*
X41465Y-34907D01*
X41394Y-34736D01*
X41283Y-34626D01*
X41367Y-34591D01*
X41411Y-34482D01*
X41000Y-34070D01*
X40929Y-34141D01*
X40929Y-34000D01*
X40517Y-33588D01*
X40408Y-33632D01*
X40312Y-33886D01*
X40321Y-34158D01*
X40408Y-34367D01*
X40517Y-34411D01*
X40929Y-34000D01*
X40929Y-34141D01*
X40588Y-34482D01*
X40632Y-34591D01*
X40718Y-34623D01*
X40606Y-34736D01*
X40535Y-34907D01*
X40534Y-35092D01*
X40605Y-35263D01*
X40736Y-35393D01*
X40907Y-35464D01*
X41092Y-35465D01*
X41263Y-35394D01*
X41393Y-35263D01*
X41464Y-35092D01*
X41465Y-34907D01*
X41465Y-35907D01*
X41394Y-35736D01*
X41263Y-35606D01*
X41092Y-35535D01*
X40907Y-35534D01*
X40736Y-35605D01*
X40606Y-35736D01*
X40535Y-35907D01*
X40534Y-36092D01*
X40605Y-36263D01*
X40736Y-36393D01*
X40907Y-36464D01*
X41092Y-36465D01*
X41263Y-36394D01*
X41393Y-36263D01*
X41464Y-36092D01*
X41465Y-35907D01*
X41465Y-36907D01*
X41394Y-36736D01*
X41263Y-36606D01*
X41092Y-36535D01*
X40907Y-36534D01*
X40736Y-36605D01*
X40606Y-36736D01*
X40535Y-36907D01*
X40534Y-37092D01*
X40605Y-37263D01*
X40736Y-37393D01*
X40907Y-37464D01*
X41092Y-37465D01*
X41263Y-37394D01*
X41393Y-37263D01*
X41464Y-37092D01*
X41465Y-36907D01*
X41465Y-38907D01*
X41465Y-38907D01*
X41465Y-38237D01*
X41465Y-37687D01*
X41436Y-37617D01*
X41382Y-37564D01*
X41312Y-37535D01*
X41237Y-37534D01*
X40687Y-37534D01*
X40617Y-37563D01*
X40564Y-37617D01*
X40535Y-37687D01*
X40534Y-37762D01*
X40534Y-38312D01*
X40563Y-38382D01*
X40617Y-38435D01*
X40687Y-38464D01*
X40762Y-38465D01*
X41312Y-38465D01*
X41382Y-38436D01*
X41435Y-38382D01*
X41464Y-38312D01*
X41465Y-38237D01*
X41465Y-38907D01*
X41394Y-38736D01*
X41263Y-38606D01*
X41092Y-38535D01*
X40907Y-38534D01*
X40736Y-38605D01*
X40606Y-38736D01*
X40535Y-38907D01*
X40534Y-39092D01*
X40605Y-39263D01*
X40736Y-39393D01*
X40907Y-39464D01*
X41092Y-39465D01*
X41263Y-39394D01*
X41393Y-39263D01*
X41464Y-39092D01*
X41465Y-38907D01*
X41465Y-39907D01*
X41394Y-39736D01*
X41263Y-39606D01*
X41092Y-39535D01*
X40907Y-39534D01*
X40736Y-39605D01*
X40606Y-39736D01*
X40535Y-39907D01*
X40534Y-40092D01*
X40605Y-40263D01*
X40736Y-40393D01*
X40907Y-40464D01*
X41092Y-40465D01*
X41263Y-40394D01*
X41393Y-40263D01*
X41464Y-40092D01*
X41465Y-39907D01*
X41465Y-40790D01*
X40521Y-40790D01*
X40390Y-40764D01*
X40297Y-40702D01*
X40235Y-40609D01*
X40209Y-40479D01*
X40209Y-30520D01*
X40235Y-30390D01*
X40297Y-30297D01*
X40390Y-30235D01*
X40521Y-30209D01*
X43349Y-30209D01*
X43323Y-30252D01*
X44000Y-30929D01*
X44676Y-30252D01*
X44650Y-30209D01*
X54479Y-30209D01*
X54609Y-30235D01*
X54702Y-30297D01*
X54764Y-30390D01*
X54790Y-30521D01*
X54790Y-40400D01*
X54799Y-40446D01*
X54799Y-40446D01*
G37*
G54D20*
X54799Y-40446D02*
X54794Y-40459D01*
X54764Y-40609D01*
X54702Y-40702D01*
X54687Y-40712D01*
X54687Y-34113D01*
X54678Y-33841D01*
X54591Y-33632D01*
X54482Y-33588D01*
X54411Y-33659D01*
X54411Y-33517D01*
X54367Y-33408D01*
X54113Y-33312D01*
X53841Y-33321D01*
X53632Y-33408D01*
X53588Y-33517D01*
X54000Y-33929D01*
X54411Y-33517D01*
X54411Y-33659D01*
X54070Y-34000D01*
X54482Y-34411D01*
X54591Y-34367D01*
X54687Y-34113D01*
X54687Y-40712D01*
X54609Y-40764D01*
X54490Y-40788D01*
X54490Y-37902D01*
X54490Y-36902D01*
X54490Y-35902D01*
X54415Y-35722D01*
X54411Y-35718D01*
X54411Y-34482D01*
X54000Y-34070D01*
X53929Y-34141D01*
X53929Y-34000D01*
X53517Y-33588D01*
X53465Y-33609D01*
X53465Y-30907D01*
X53394Y-30736D01*
X53263Y-30606D01*
X53092Y-30535D01*
X52907Y-30534D01*
X52736Y-30605D01*
X52606Y-30736D01*
X52535Y-30907D01*
X52534Y-31092D01*
X52605Y-31263D01*
X52736Y-31393D01*
X52907Y-31464D01*
X53092Y-31465D01*
X53263Y-31394D01*
X53393Y-31263D01*
X53464Y-31092D01*
X53465Y-30907D01*
X53465Y-33609D01*
X53408Y-33632D01*
X53376Y-33718D01*
X53263Y-33606D01*
X53092Y-33535D01*
X52907Y-33534D01*
X52736Y-33605D01*
X52627Y-33715D01*
X52465Y-33715D01*
X52465Y-32907D01*
X52394Y-32736D01*
X52263Y-32606D01*
X52092Y-32535D01*
X51965Y-32534D01*
X51965Y-30907D01*
X51894Y-30736D01*
X51763Y-30606D01*
X51592Y-30535D01*
X51407Y-30534D01*
X51236Y-30605D01*
X51106Y-30736D01*
X51035Y-30907D01*
X51034Y-31092D01*
X51105Y-31263D01*
X51236Y-31393D01*
X51407Y-31464D01*
X51592Y-31465D01*
X51763Y-31394D01*
X51893Y-31263D01*
X51964Y-31092D01*
X51965Y-30907D01*
X51965Y-32534D01*
X51907Y-32534D01*
X51736Y-32605D01*
X51606Y-32736D01*
X51535Y-32907D01*
X51534Y-33092D01*
X51605Y-33263D01*
X51736Y-33393D01*
X51907Y-33464D01*
X52092Y-33465D01*
X52263Y-33394D01*
X52393Y-33263D01*
X52464Y-33092D01*
X52465Y-32907D01*
X52465Y-33715D01*
X52372Y-33715D01*
X52263Y-33606D01*
X52092Y-33535D01*
X51907Y-33534D01*
X51736Y-33605D01*
X51627Y-33715D01*
X51500Y-33715D01*
X51499Y-33715D01*
X51390Y-33736D01*
X51298Y-33798D01*
X51298Y-33798D01*
X50029Y-35067D01*
X50029Y-31075D01*
X50018Y-30867D01*
X49960Y-30727D01*
X49867Y-30702D01*
X49797Y-30773D01*
X49797Y-30632D01*
X49772Y-30539D01*
X49575Y-30470D01*
X49367Y-30481D01*
X49227Y-30539D01*
X49202Y-30632D01*
X49500Y-30929D01*
X49797Y-30632D01*
X49797Y-30773D01*
X49570Y-31000D01*
X49867Y-31297D01*
X49960Y-31272D01*
X50029Y-31075D01*
X50029Y-35067D01*
X49797Y-35299D01*
X49797Y-31367D01*
X49500Y-31070D01*
X49429Y-31141D01*
X49429Y-31000D01*
X49132Y-30702D01*
X49039Y-30727D01*
X48970Y-30924D01*
X48981Y-31132D01*
X49039Y-31272D01*
X49132Y-31297D01*
X49429Y-31000D01*
X49429Y-31141D01*
X49202Y-31367D01*
X49227Y-31460D01*
X49424Y-31529D01*
X49632Y-31518D01*
X49772Y-31460D01*
X49797Y-31367D01*
X49797Y-35299D01*
X49465Y-35631D01*
X49465Y-34907D01*
X49465Y-33907D01*
X49465Y-33907D01*
X49465Y-33237D01*
X49465Y-32687D01*
X49436Y-32617D01*
X49382Y-32564D01*
X49312Y-32535D01*
X49237Y-32534D01*
X48687Y-32534D01*
X48617Y-32563D01*
X48564Y-32617D01*
X48535Y-32687D01*
X48534Y-32762D01*
X48534Y-33312D01*
X48563Y-33382D01*
X48617Y-33435D01*
X48687Y-33464D01*
X48762Y-33465D01*
X49312Y-33465D01*
X49382Y-33436D01*
X49435Y-33382D01*
X49464Y-33312D01*
X49465Y-33237D01*
X49465Y-33907D01*
X49394Y-33736D01*
X49263Y-33606D01*
X49092Y-33535D01*
X48907Y-33534D01*
X48736Y-33605D01*
X48606Y-33736D01*
X48535Y-33907D01*
X48534Y-34092D01*
X48605Y-34263D01*
X48736Y-34393D01*
X48907Y-34464D01*
X49092Y-34465D01*
X49263Y-34394D01*
X49393Y-34263D01*
X49464Y-34092D01*
X49465Y-33907D01*
X49465Y-34907D01*
X49394Y-34736D01*
X49263Y-34606D01*
X49092Y-34535D01*
X48907Y-34534D01*
X48736Y-34605D01*
X48606Y-34736D01*
X48535Y-34907D01*
X48534Y-35092D01*
X48605Y-35263D01*
X48736Y-35393D01*
X48907Y-35464D01*
X49092Y-35465D01*
X49263Y-35394D01*
X49393Y-35263D01*
X49464Y-35092D01*
X49465Y-34907D01*
X49465Y-35631D01*
X49381Y-35715D01*
X49372Y-35715D01*
X49263Y-35606D01*
X49092Y-35535D01*
X48907Y-35534D01*
X48736Y-35605D01*
X48606Y-35736D01*
X48535Y-35907D01*
X48534Y-36092D01*
X48605Y-36263D01*
X48736Y-36393D01*
X48907Y-36464D01*
X49092Y-36465D01*
X49263Y-36394D01*
X49372Y-36285D01*
X49499Y-36285D01*
X49500Y-36285D01*
X49500Y-36285D01*
X49590Y-36266D01*
X49609Y-36263D01*
X49609Y-36263D01*
X49701Y-36201D01*
X51618Y-34285D01*
X51627Y-34285D01*
X51736Y-34393D01*
X51907Y-34464D01*
X52092Y-34465D01*
X52263Y-34394D01*
X52372Y-34285D01*
X52627Y-34285D01*
X52736Y-34393D01*
X52907Y-34464D01*
X53092Y-34465D01*
X53263Y-34394D01*
X53373Y-34283D01*
X53408Y-34367D01*
X53517Y-34411D01*
X53929Y-34000D01*
X53929Y-34141D01*
X53588Y-34482D01*
X53632Y-34591D01*
X53886Y-34687D01*
X54158Y-34678D01*
X54367Y-34591D01*
X54411Y-34482D01*
X54411Y-35718D01*
X54277Y-35584D01*
X54097Y-35510D01*
X53902Y-35509D01*
X53722Y-35584D01*
X53584Y-35722D01*
X53510Y-35902D01*
X53509Y-36097D01*
X53584Y-36277D01*
X53722Y-36415D01*
X53902Y-36489D01*
X54097Y-36490D01*
X54277Y-36415D01*
X54415Y-36277D01*
X54489Y-36097D01*
X54490Y-35902D01*
X54490Y-36902D01*
X54415Y-36722D01*
X54277Y-36584D01*
X54097Y-36510D01*
X53902Y-36509D01*
X53722Y-36584D01*
X53584Y-36722D01*
X53510Y-36902D01*
X53509Y-37097D01*
X53584Y-37277D01*
X53722Y-37415D01*
X53902Y-37489D01*
X54097Y-37490D01*
X54277Y-37415D01*
X54415Y-37277D01*
X54489Y-37097D01*
X54490Y-36902D01*
X54490Y-37902D01*
X54415Y-37722D01*
X54277Y-37584D01*
X54097Y-37510D01*
X53902Y-37509D01*
X53722Y-37584D01*
X53584Y-37722D01*
X53510Y-37902D01*
X53509Y-38097D01*
X53584Y-38277D01*
X53722Y-38415D01*
X53902Y-38489D01*
X54097Y-38490D01*
X54277Y-38415D01*
X54415Y-38277D01*
X54489Y-38097D01*
X54490Y-37902D01*
X54490Y-40788D01*
X54490Y-40788D01*
X54490Y-39262D01*
X54490Y-38662D01*
X54461Y-38592D01*
X54407Y-38539D01*
X54337Y-38510D01*
X54262Y-38509D01*
X53662Y-38509D01*
X53592Y-38538D01*
X53539Y-38592D01*
X53510Y-38662D01*
X53509Y-38737D01*
X53509Y-39337D01*
X53538Y-39407D01*
X53592Y-39460D01*
X53662Y-39489D01*
X53737Y-39490D01*
X54337Y-39490D01*
X54407Y-39461D01*
X54460Y-39407D01*
X54489Y-39337D01*
X54490Y-39262D01*
X54490Y-40788D01*
X54479Y-40790D01*
X52465Y-40790D01*
X52465Y-38907D01*
X52465Y-37907D01*
X52465Y-36907D01*
X52465Y-35907D01*
X52394Y-35736D01*
X52263Y-35606D01*
X52092Y-35535D01*
X51907Y-35534D01*
X51840Y-35562D01*
X51938Y-35464D01*
X52092Y-35465D01*
X52263Y-35394D01*
X52393Y-35263D01*
X52464Y-35092D01*
X52465Y-34907D01*
X52394Y-34736D01*
X52263Y-34606D01*
X52092Y-34535D01*
X51907Y-34534D01*
X51736Y-34605D01*
X51606Y-34736D01*
X51535Y-34907D01*
X51534Y-35062D01*
X49437Y-37159D01*
X49464Y-37092D01*
X49465Y-36907D01*
X49394Y-36736D01*
X49263Y-36606D01*
X49092Y-36535D01*
X48907Y-36534D01*
X48736Y-36605D01*
X48606Y-36736D01*
X48535Y-36907D01*
X48534Y-37092D01*
X48605Y-37263D01*
X48736Y-37393D01*
X48907Y-37464D01*
X49092Y-37465D01*
X49159Y-37437D01*
X49061Y-37535D01*
X48907Y-37534D01*
X48736Y-37605D01*
X48606Y-37736D01*
X48535Y-37907D01*
X48534Y-38092D01*
X48605Y-38263D01*
X48736Y-38393D01*
X48907Y-38464D01*
X49092Y-38465D01*
X49263Y-38394D01*
X49393Y-38263D01*
X49464Y-38092D01*
X49465Y-37937D01*
X51562Y-35840D01*
X51535Y-35907D01*
X51534Y-36092D01*
X51605Y-36263D01*
X51736Y-36393D01*
X51907Y-36464D01*
X52092Y-36465D01*
X52263Y-36394D01*
X52393Y-36263D01*
X52464Y-36092D01*
X52465Y-35907D01*
X52465Y-36907D01*
X52394Y-36736D01*
X52263Y-36606D01*
X52092Y-36535D01*
X51907Y-36534D01*
X51736Y-36605D01*
X51606Y-36736D01*
X51535Y-36907D01*
X51534Y-37092D01*
X51605Y-37263D01*
X51736Y-37393D01*
X51907Y-37464D01*
X52092Y-37465D01*
X52263Y-37394D01*
X52393Y-37263D01*
X52464Y-37092D01*
X52465Y-36907D01*
X52465Y-37907D01*
X52394Y-37736D01*
X52263Y-37606D01*
X52092Y-37535D01*
X51907Y-37534D01*
X51736Y-37605D01*
X51606Y-37736D01*
X51535Y-37907D01*
X51534Y-38092D01*
X51605Y-38263D01*
X51736Y-38393D01*
X51907Y-38464D01*
X52092Y-38465D01*
X52263Y-38394D01*
X52393Y-38263D01*
X52464Y-38092D01*
X52465Y-37907D01*
X52465Y-38907D01*
X52394Y-38736D01*
X52263Y-38606D01*
X52092Y-38535D01*
X51907Y-38534D01*
X51736Y-38605D01*
X51606Y-38736D01*
X51535Y-38907D01*
X51534Y-39092D01*
X51605Y-39263D01*
X51736Y-39393D01*
X51907Y-39464D01*
X52092Y-39465D01*
X52263Y-39394D01*
X52393Y-39263D01*
X52464Y-39092D01*
X52465Y-38907D01*
X52465Y-40790D01*
X49529Y-40790D01*
X49529Y-39075D01*
X49518Y-38867D01*
X49460Y-38727D01*
X49367Y-38702D01*
X49297Y-38773D01*
X49297Y-38632D01*
X49272Y-38539D01*
X49075Y-38470D01*
X48867Y-38481D01*
X48727Y-38539D01*
X48702Y-38632D01*
X49000Y-38929D01*
X49297Y-38632D01*
X49297Y-38773D01*
X49070Y-39000D01*
X49367Y-39297D01*
X49460Y-39272D01*
X49529Y-39075D01*
X49529Y-40790D01*
X49297Y-40790D01*
X49297Y-39367D01*
X49000Y-39070D01*
X48929Y-39141D01*
X48929Y-39000D01*
X48632Y-38702D01*
X48539Y-38727D01*
X48529Y-38754D01*
X48529Y-35075D01*
X48518Y-34867D01*
X48460Y-34727D01*
X48367Y-34702D01*
X48297Y-34773D01*
X48297Y-34632D01*
X48272Y-34539D01*
X48075Y-34470D01*
X47867Y-34481D01*
X47727Y-34539D01*
X47702Y-34632D01*
X48000Y-34929D01*
X48297Y-34632D01*
X48297Y-34773D01*
X48070Y-35000D01*
X48367Y-35297D01*
X48460Y-35272D01*
X48529Y-35075D01*
X48529Y-38754D01*
X48470Y-38924D01*
X48481Y-39132D01*
X48539Y-39272D01*
X48632Y-39297D01*
X48929Y-39000D01*
X48929Y-39141D01*
X48702Y-39367D01*
X48727Y-39460D01*
X48924Y-39529D01*
X49132Y-39518D01*
X49272Y-39460D01*
X49297Y-39367D01*
X49297Y-40790D01*
X48465Y-40790D01*
X48465Y-36907D01*
X48465Y-35907D01*
X48394Y-35736D01*
X48297Y-35639D01*
X48297Y-35367D01*
X48000Y-35070D01*
X47929Y-35141D01*
X47929Y-35000D01*
X47632Y-34702D01*
X47539Y-34727D01*
X47470Y-34924D01*
X47481Y-35132D01*
X47539Y-35272D01*
X47632Y-35297D01*
X47929Y-35000D01*
X47929Y-35141D01*
X47702Y-35367D01*
X47727Y-35460D01*
X47924Y-35529D01*
X48132Y-35518D01*
X48272Y-35460D01*
X48297Y-35367D01*
X48297Y-35639D01*
X48263Y-35606D01*
X48092Y-35535D01*
X47907Y-35534D01*
X47736Y-35605D01*
X47606Y-35736D01*
X47535Y-35907D01*
X47534Y-36092D01*
X47605Y-36263D01*
X47736Y-36393D01*
X47907Y-36464D01*
X48092Y-36465D01*
X48263Y-36394D01*
X48393Y-36263D01*
X48464Y-36092D01*
X48465Y-35907D01*
X48465Y-36907D01*
X48394Y-36736D01*
X48263Y-36606D01*
X48092Y-36535D01*
X47907Y-36534D01*
X47736Y-36605D01*
X47606Y-36736D01*
X47535Y-36907D01*
X47534Y-37092D01*
X47605Y-37263D01*
X47736Y-37393D01*
X47907Y-37464D01*
X48092Y-37465D01*
X48263Y-37394D01*
X48393Y-37263D01*
X48464Y-37092D01*
X48465Y-36907D01*
X48465Y-40790D01*
X47529Y-40790D01*
X47529Y-40075D01*
X47518Y-39867D01*
X47465Y-39738D01*
X47465Y-38907D01*
X47465Y-38907D01*
X47465Y-38237D01*
X47465Y-37687D01*
X47436Y-37617D01*
X47382Y-37564D01*
X47312Y-37535D01*
X47237Y-37534D01*
X47051Y-37534D01*
X47051Y-33201D01*
X47048Y-32783D01*
X46894Y-32411D01*
X46747Y-32323D01*
X46676Y-32394D01*
X46676Y-32252D01*
X46588Y-32105D01*
X46201Y-31948D01*
X45783Y-31951D01*
X45411Y-32105D01*
X45323Y-32252D01*
X46000Y-32929D01*
X46676Y-32252D01*
X46676Y-32394D01*
X46070Y-33000D01*
X46747Y-33676D01*
X46894Y-33588D01*
X47051Y-33201D01*
X47051Y-37534D01*
X46687Y-37534D01*
X46676Y-37539D01*
X46676Y-33747D01*
X46000Y-33070D01*
X45929Y-33141D01*
X45929Y-33000D01*
X45252Y-32323D01*
X45105Y-32411D01*
X45051Y-32544D01*
X45051Y-31201D01*
X45048Y-30783D01*
X44894Y-30411D01*
X44747Y-30323D01*
X44070Y-31000D01*
X44747Y-31676D01*
X44894Y-31588D01*
X45051Y-31201D01*
X45051Y-32544D01*
X44948Y-32798D01*
X44951Y-33216D01*
X45105Y-33588D01*
X45252Y-33676D01*
X45929Y-33000D01*
X45929Y-33141D01*
X45323Y-33747D01*
X45411Y-33894D01*
X45798Y-34051D01*
X46216Y-34048D01*
X46588Y-33894D01*
X46676Y-33747D01*
X46676Y-37539D01*
X46617Y-37563D01*
X46564Y-37617D01*
X46535Y-37687D01*
X46534Y-37762D01*
X46534Y-38312D01*
X46563Y-38382D01*
X46617Y-38435D01*
X46687Y-38464D01*
X46762Y-38465D01*
X47312Y-38465D01*
X47382Y-38436D01*
X47435Y-38382D01*
X47464Y-38312D01*
X47465Y-38237D01*
X47465Y-38907D01*
X47394Y-38736D01*
X47263Y-38606D01*
X47092Y-38535D01*
X46907Y-38534D01*
X46736Y-38605D01*
X46606Y-38736D01*
X46535Y-38907D01*
X46534Y-39092D01*
X46605Y-39263D01*
X46736Y-39393D01*
X46907Y-39464D01*
X47092Y-39465D01*
X47263Y-39394D01*
X47393Y-39263D01*
X47464Y-39092D01*
X47465Y-38907D01*
X47465Y-39738D01*
X47460Y-39727D01*
X47367Y-39702D01*
X47297Y-39773D01*
X47297Y-39632D01*
X47272Y-39539D01*
X47075Y-39470D01*
X46867Y-39481D01*
X46727Y-39539D01*
X46702Y-39632D01*
X47000Y-39929D01*
X47297Y-39632D01*
X47297Y-39773D01*
X47070Y-40000D01*
X47367Y-40297D01*
X47460Y-40272D01*
X47529Y-40075D01*
X47529Y-40790D01*
X47297Y-40790D01*
X47297Y-40367D01*
X47000Y-40070D01*
X46929Y-40141D01*
X46929Y-40000D01*
X46632Y-39702D01*
X46539Y-39727D01*
X46470Y-39924D01*
X46481Y-40132D01*
X46539Y-40272D01*
X46632Y-40297D01*
X46929Y-40000D01*
X46929Y-40141D01*
X46702Y-40367D01*
X46727Y-40460D01*
X46924Y-40529D01*
X47132Y-40518D01*
X47272Y-40460D01*
X47297Y-40367D01*
X47297Y-40790D01*
X45529Y-40790D01*
X45529Y-40075D01*
X45518Y-39867D01*
X45465Y-39738D01*
X45465Y-38907D01*
X45465Y-36907D01*
X45465Y-35907D01*
X45465Y-34907D01*
X45394Y-34736D01*
X45263Y-34606D01*
X45092Y-34535D01*
X44907Y-34534D01*
X44775Y-34589D01*
X44775Y-32846D01*
X44676Y-32608D01*
X44676Y-31747D01*
X44000Y-31070D01*
X43929Y-31141D01*
X43929Y-31000D01*
X43252Y-30323D01*
X43105Y-30411D01*
X42948Y-30798D01*
X42951Y-31216D01*
X43105Y-31588D01*
X43252Y-31676D01*
X43929Y-31000D01*
X43929Y-31141D01*
X43323Y-31747D01*
X43411Y-31894D01*
X43798Y-32051D01*
X44216Y-32048D01*
X44588Y-31894D01*
X44676Y-31747D01*
X44676Y-32608D01*
X44657Y-32561D01*
X44439Y-32343D01*
X44154Y-32225D01*
X43846Y-32224D01*
X43561Y-32342D01*
X43343Y-32560D01*
X43225Y-32845D01*
X43224Y-33153D01*
X43342Y-33438D01*
X43560Y-33656D01*
X43845Y-33774D01*
X44153Y-33775D01*
X44438Y-33657D01*
X44656Y-33439D01*
X44774Y-33154D01*
X44775Y-32846D01*
X44775Y-34589D01*
X44736Y-34605D01*
X44606Y-34736D01*
X44535Y-34907D01*
X44534Y-35092D01*
X44605Y-35263D01*
X44736Y-35393D01*
X44907Y-35464D01*
X45092Y-35465D01*
X45263Y-35394D01*
X45393Y-35263D01*
X45464Y-35092D01*
X45465Y-34907D01*
X45465Y-35907D01*
X45394Y-35736D01*
X45263Y-35606D01*
X45092Y-35535D01*
X44907Y-35534D01*
X44736Y-35605D01*
X44606Y-35736D01*
X44535Y-35907D01*
X44534Y-36092D01*
X44605Y-36263D01*
X44736Y-36393D01*
X44907Y-36464D01*
X45092Y-36465D01*
X45263Y-36394D01*
X45393Y-36263D01*
X45464Y-36092D01*
X45465Y-35907D01*
X45465Y-36907D01*
X45394Y-36736D01*
X45263Y-36606D01*
X45092Y-36535D01*
X44907Y-36534D01*
X44736Y-36605D01*
X44606Y-36736D01*
X44535Y-36907D01*
X44534Y-37092D01*
X44605Y-37263D01*
X44736Y-37393D01*
X44907Y-37464D01*
X45092Y-37465D01*
X45263Y-37394D01*
X45393Y-37263D01*
X45464Y-37092D01*
X45465Y-36907D01*
X45465Y-38907D01*
X45465Y-38907D01*
X45465Y-38237D01*
X45465Y-37687D01*
X45436Y-37617D01*
X45382Y-37564D01*
X45312Y-37535D01*
X45237Y-37534D01*
X44687Y-37534D01*
X44617Y-37563D01*
X44564Y-37617D01*
X44535Y-37687D01*
X44534Y-37762D01*
X44534Y-38312D01*
X44563Y-38382D01*
X44617Y-38435D01*
X44687Y-38464D01*
X44762Y-38465D01*
X45312Y-38465D01*
X45382Y-38436D01*
X45435Y-38382D01*
X45464Y-38312D01*
X45465Y-38237D01*
X45465Y-38907D01*
X45394Y-38736D01*
X45263Y-38606D01*
X45092Y-38535D01*
X44907Y-38534D01*
X44736Y-38605D01*
X44606Y-38736D01*
X44535Y-38907D01*
X44534Y-39092D01*
X44605Y-39263D01*
X44736Y-39393D01*
X44907Y-39464D01*
X45092Y-39465D01*
X45263Y-39394D01*
X45393Y-39263D01*
X45464Y-39092D01*
X45465Y-38907D01*
X45465Y-39738D01*
X45460Y-39727D01*
X45367Y-39702D01*
X45297Y-39773D01*
X45297Y-39632D01*
X45272Y-39539D01*
X45075Y-39470D01*
X44867Y-39481D01*
X44727Y-39539D01*
X44702Y-39632D01*
X45000Y-39929D01*
X45297Y-39632D01*
X45297Y-39773D01*
X45070Y-40000D01*
X45367Y-40297D01*
X45460Y-40272D01*
X45529Y-40075D01*
X45529Y-40790D01*
X45297Y-40790D01*
X45297Y-40367D01*
X45000Y-40070D01*
X44929Y-40141D01*
X44929Y-40000D01*
X44632Y-39702D01*
X44539Y-39727D01*
X44470Y-39924D01*
X44481Y-40132D01*
X44539Y-40272D01*
X44632Y-40297D01*
X44929Y-40000D01*
X44929Y-40141D01*
X44702Y-40367D01*
X44727Y-40460D01*
X44924Y-40529D01*
X45132Y-40518D01*
X45272Y-40460D01*
X45297Y-40367D01*
X45297Y-40790D01*
X44465Y-40790D01*
X44465Y-36907D01*
X44465Y-35907D01*
X44465Y-34907D01*
X44394Y-34736D01*
X44263Y-34606D01*
X44092Y-34535D01*
X43907Y-34534D01*
X43736Y-34605D01*
X43606Y-34736D01*
X43535Y-34907D01*
X43534Y-35092D01*
X43605Y-35263D01*
X43736Y-35393D01*
X43907Y-35464D01*
X44092Y-35465D01*
X44263Y-35394D01*
X44393Y-35263D01*
X44464Y-35092D01*
X44465Y-34907D01*
X44465Y-35907D01*
X44394Y-35736D01*
X44263Y-35606D01*
X44092Y-35535D01*
X43907Y-35534D01*
X43736Y-35605D01*
X43606Y-35736D01*
X43535Y-35907D01*
X43534Y-36092D01*
X43605Y-36263D01*
X43736Y-36393D01*
X43907Y-36464D01*
X44092Y-36465D01*
X44263Y-36394D01*
X44393Y-36263D01*
X44464Y-36092D01*
X44465Y-35907D01*
X44465Y-36907D01*
X44394Y-36736D01*
X44263Y-36606D01*
X44092Y-36535D01*
X43907Y-36534D01*
X43736Y-36605D01*
X43606Y-36736D01*
X43535Y-36907D01*
X43534Y-37092D01*
X43605Y-37263D01*
X43736Y-37393D01*
X43907Y-37464D01*
X44092Y-37465D01*
X44263Y-37394D01*
X44393Y-37263D01*
X44464Y-37092D01*
X44465Y-36907D01*
X44465Y-40790D01*
X43529Y-40790D01*
X43529Y-40075D01*
X43518Y-39867D01*
X43465Y-39738D01*
X43465Y-38907D01*
X43465Y-38907D01*
X43465Y-38237D01*
X43465Y-37687D01*
X43436Y-37617D01*
X43382Y-37564D01*
X43312Y-37535D01*
X43237Y-37534D01*
X43051Y-37534D01*
X43051Y-33201D01*
X43048Y-32783D01*
X42894Y-32411D01*
X42747Y-32323D01*
X42676Y-32394D01*
X42676Y-32252D01*
X42588Y-32105D01*
X42201Y-31948D01*
X41783Y-31951D01*
X41411Y-32105D01*
X41323Y-32252D01*
X42000Y-32929D01*
X42676Y-32252D01*
X42676Y-32394D01*
X42070Y-33000D01*
X42747Y-33676D01*
X42894Y-33588D01*
X43051Y-33201D01*
X43051Y-37534D01*
X42687Y-37534D01*
X42676Y-37539D01*
X42676Y-33747D01*
X42000Y-33070D01*
X41929Y-33141D01*
X41929Y-33000D01*
X41252Y-32323D01*
X41105Y-32411D01*
X40948Y-32798D01*
X40951Y-33216D01*
X40993Y-33316D01*
X40841Y-33321D01*
X40632Y-33408D01*
X40588Y-33517D01*
X41000Y-33929D01*
X41252Y-33676D01*
X41411Y-33517D01*
X41929Y-33000D01*
X41929Y-33141D01*
X41482Y-33588D01*
X41323Y-33747D01*
X41070Y-34000D01*
X41482Y-34411D01*
X41591Y-34367D01*
X41687Y-34113D01*
X41683Y-34004D01*
X41798Y-34051D01*
X42216Y-34048D01*
X42588Y-33894D01*
X42676Y-33747D01*
X42676Y-37539D01*
X42617Y-37563D01*
X42564Y-37617D01*
X42535Y-37687D01*
X42534Y-37762D01*
X42534Y-38312D01*
X42563Y-38382D01*
X42617Y-38435D01*
X42687Y-38464D01*
X42762Y-38465D01*
X43312Y-38465D01*
X43382Y-38436D01*
X43435Y-38382D01*
X43464Y-38312D01*
X43465Y-38237D01*
X43465Y-38907D01*
X43394Y-38736D01*
X43263Y-38606D01*
X43092Y-38535D01*
X42907Y-38534D01*
X42736Y-38605D01*
X42606Y-38736D01*
X42535Y-38907D01*
X42534Y-39092D01*
X42605Y-39263D01*
X42736Y-39393D01*
X42907Y-39464D01*
X43092Y-39465D01*
X43263Y-39394D01*
X43393Y-39263D01*
X43464Y-39092D01*
X43465Y-38907D01*
X43465Y-39738D01*
X43460Y-39727D01*
X43367Y-39702D01*
X43297Y-39773D01*
X43297Y-39632D01*
X43272Y-39539D01*
X43075Y-39470D01*
X42867Y-39481D01*
X42727Y-39539D01*
X42702Y-39632D01*
X43000Y-39929D01*
X43297Y-39632D01*
X43297Y-39773D01*
X43070Y-40000D01*
X43367Y-40297D01*
X43460Y-40272D01*
X43529Y-40075D01*
X43529Y-40790D01*
X43297Y-40790D01*
X43297Y-40367D01*
X43000Y-40070D01*
X42929Y-40141D01*
X42929Y-40000D01*
X42632Y-39702D01*
X42539Y-39727D01*
X42470Y-39924D01*
X42481Y-40132D01*
X42539Y-40272D01*
X42632Y-40297D01*
X42929Y-40000D01*
X42929Y-40141D01*
X42702Y-40367D01*
X42727Y-40460D01*
X42924Y-40529D01*
X43132Y-40518D01*
X43272Y-40460D01*
X43297Y-40367D01*
X43297Y-40790D01*
X41465Y-40790D01*
X41465Y-39907D01*
X41465Y-38907D01*
X41465Y-36907D01*
X41465Y-35907D01*
X41465Y-34907D01*
X41394Y-34736D01*
X41283Y-34626D01*
X41367Y-34591D01*
X41411Y-34482D01*
X41000Y-34070D01*
X40929Y-34141D01*
X40929Y-34000D01*
X40517Y-33588D01*
X40408Y-33632D01*
X40312Y-33886D01*
X40321Y-34158D01*
X40408Y-34367D01*
X40517Y-34411D01*
X40929Y-34000D01*
X40929Y-34141D01*
X40588Y-34482D01*
X40632Y-34591D01*
X40718Y-34623D01*
X40606Y-34736D01*
X40535Y-34907D01*
X40534Y-35092D01*
X40605Y-35263D01*
X40736Y-35393D01*
X40907Y-35464D01*
X41092Y-35465D01*
X41263Y-35394D01*
X41393Y-35263D01*
X41464Y-35092D01*
X41465Y-34907D01*
X41465Y-35907D01*
X41394Y-35736D01*
X41263Y-35606D01*
X41092Y-35535D01*
X40907Y-35534D01*
X40736Y-35605D01*
X40606Y-35736D01*
X40535Y-35907D01*
X40534Y-36092D01*
X40605Y-36263D01*
X40736Y-36393D01*
X40907Y-36464D01*
X41092Y-36465D01*
X41263Y-36394D01*
X41393Y-36263D01*
X41464Y-36092D01*
X41465Y-35907D01*
X41465Y-36907D01*
X41394Y-36736D01*
X41263Y-36606D01*
X41092Y-36535D01*
X40907Y-36534D01*
X40736Y-36605D01*
X40606Y-36736D01*
X40535Y-36907D01*
X40534Y-37092D01*
X40605Y-37263D01*
X40736Y-37393D01*
X40907Y-37464D01*
X41092Y-37465D01*
X41263Y-37394D01*
X41393Y-37263D01*
X41464Y-37092D01*
X41465Y-36907D01*
X41465Y-38907D01*
X41465Y-38907D01*
X41465Y-38237D01*
X41465Y-37687D01*
X41436Y-37617D01*
X41382Y-37564D01*
X41312Y-37535D01*
X41237Y-37534D01*
X40687Y-37534D01*
X40617Y-37563D01*
X40564Y-37617D01*
X40535Y-37687D01*
X40534Y-37762D01*
X40534Y-38312D01*
X40563Y-38382D01*
X40617Y-38435D01*
X40687Y-38464D01*
X40762Y-38465D01*
X41312Y-38465D01*
X41382Y-38436D01*
X41435Y-38382D01*
X41464Y-38312D01*
X41465Y-38237D01*
X41465Y-38907D01*
X41394Y-38736D01*
X41263Y-38606D01*
X41092Y-38535D01*
X40907Y-38534D01*
X40736Y-38605D01*
X40606Y-38736D01*
X40535Y-38907D01*
X40534Y-39092D01*
X40605Y-39263D01*
X40736Y-39393D01*
X40907Y-39464D01*
X41092Y-39465D01*
X41263Y-39394D01*
X41393Y-39263D01*
X41464Y-39092D01*
X41465Y-38907D01*
X41465Y-39907D01*
X41394Y-39736D01*
X41263Y-39606D01*
X41092Y-39535D01*
X40907Y-39534D01*
X40736Y-39605D01*
X40606Y-39736D01*
X40535Y-39907D01*
X40534Y-40092D01*
X40605Y-40263D01*
X40736Y-40393D01*
X40907Y-40464D01*
X41092Y-40465D01*
X41263Y-40394D01*
X41393Y-40263D01*
X41464Y-40092D01*
X41465Y-39907D01*
X41465Y-40790D01*
X40521Y-40790D01*
X40390Y-40764D01*
X40297Y-40702D01*
X40235Y-40609D01*
X40209Y-40479D01*
X40209Y-30520D01*
X40235Y-30390D01*
X40297Y-30297D01*
X40390Y-30235D01*
X40521Y-30209D01*
X43349Y-30209D01*
X43323Y-30252D01*
X44000Y-30929D01*
X44676Y-30252D01*
X44650Y-30209D01*
X54479Y-30209D01*
X54609Y-30235D01*
X54702Y-30297D01*
X54764Y-30390D01*
X54790Y-30521D01*
X54790Y-40400D01*
X54799Y-40446D01*
M02*
