G04 (created by PCBNEW (2013-05-16 BZR 4016)-stable) date 12/19/2013 7:04:02 PM*
%MOIN*%
G04 Gerber Fmt 3.4, Leading zero omitted, Abs format*
%FSLAX34Y34*%
G01*
G70*
G90*
G04 APERTURE LIST*
%ADD10C,0.00590551*%
%ADD11C,0.006*%
%ADD12C,0.00787402*%
%ADD13C,0.01*%
%ADD14C,0.008*%
G04 APERTURE END LIST*
G54D10*
G54D11*
X47135Y-32952D02*
X47178Y-32971D01*
X47192Y-32990D01*
X47207Y-33028D01*
X47207Y-33085D01*
X47192Y-33123D01*
X47178Y-33142D01*
X47150Y-33161D01*
X47035Y-33161D01*
X47035Y-32761D01*
X47135Y-32761D01*
X47164Y-32780D01*
X47178Y-32800D01*
X47192Y-32838D01*
X47192Y-32876D01*
X47178Y-32914D01*
X47164Y-32933D01*
X47135Y-32952D01*
X47035Y-32952D01*
X47464Y-33161D02*
X47464Y-32952D01*
X47450Y-32914D01*
X47421Y-32895D01*
X47364Y-32895D01*
X47335Y-32914D01*
X47464Y-33142D02*
X47435Y-33161D01*
X47364Y-33161D01*
X47335Y-33142D01*
X47321Y-33104D01*
X47321Y-33066D01*
X47335Y-33028D01*
X47364Y-33009D01*
X47435Y-33009D01*
X47464Y-32990D01*
X47735Y-33142D02*
X47707Y-33161D01*
X47650Y-33161D01*
X47621Y-33142D01*
X47607Y-33123D01*
X47592Y-33085D01*
X47592Y-32971D01*
X47607Y-32933D01*
X47621Y-32914D01*
X47650Y-32895D01*
X47707Y-32895D01*
X47735Y-32914D01*
X47864Y-33161D02*
X47864Y-32761D01*
X47892Y-33009D02*
X47978Y-33161D01*
X47978Y-32895D02*
X47864Y-33047D01*
X46928Y-33781D02*
X46928Y-33381D01*
X47042Y-33381D01*
X47071Y-33400D01*
X47085Y-33420D01*
X47100Y-33458D01*
X47100Y-33515D01*
X47085Y-33553D01*
X47071Y-33572D01*
X47042Y-33591D01*
X46928Y-33591D01*
X47271Y-33781D02*
X47242Y-33762D01*
X47228Y-33743D01*
X47214Y-33705D01*
X47214Y-33591D01*
X47228Y-33553D01*
X47242Y-33534D01*
X47271Y-33515D01*
X47314Y-33515D01*
X47342Y-33534D01*
X47357Y-33553D01*
X47371Y-33591D01*
X47371Y-33705D01*
X47357Y-33743D01*
X47342Y-33762D01*
X47314Y-33781D01*
X47271Y-33781D01*
X47500Y-33781D02*
X47500Y-33515D01*
X47500Y-33591D02*
X47514Y-33553D01*
X47528Y-33534D01*
X47557Y-33515D01*
X47585Y-33515D01*
X47814Y-33762D02*
X47785Y-33781D01*
X47728Y-33781D01*
X47700Y-33762D01*
X47685Y-33743D01*
X47671Y-33705D01*
X47671Y-33591D01*
X47685Y-33553D01*
X47700Y-33534D01*
X47728Y-33515D01*
X47785Y-33515D01*
X47814Y-33534D01*
X47942Y-33781D02*
X47942Y-33381D01*
X48071Y-33781D02*
X48071Y-33572D01*
X48057Y-33534D01*
X48028Y-33515D01*
X47985Y-33515D01*
X47957Y-33534D01*
X47942Y-33553D01*
X46642Y-34020D02*
X46614Y-34001D01*
X46571Y-34001D01*
X46528Y-34020D01*
X46499Y-34059D01*
X46485Y-34097D01*
X46471Y-34173D01*
X46471Y-34230D01*
X46485Y-34306D01*
X46499Y-34344D01*
X46528Y-34382D01*
X46571Y-34401D01*
X46599Y-34401D01*
X46642Y-34382D01*
X46657Y-34363D01*
X46657Y-34230D01*
X46599Y-34230D01*
X46899Y-34382D02*
X46871Y-34401D01*
X46814Y-34401D01*
X46785Y-34382D01*
X46771Y-34344D01*
X46771Y-34192D01*
X46785Y-34154D01*
X46814Y-34135D01*
X46871Y-34135D01*
X46899Y-34154D01*
X46914Y-34192D01*
X46914Y-34230D01*
X46771Y-34268D01*
X47042Y-34135D02*
X47042Y-34401D01*
X47042Y-34173D02*
X47057Y-34154D01*
X47085Y-34135D01*
X47128Y-34135D01*
X47157Y-34154D01*
X47171Y-34192D01*
X47171Y-34401D01*
X47428Y-34382D02*
X47400Y-34401D01*
X47342Y-34401D01*
X47314Y-34382D01*
X47300Y-34344D01*
X47300Y-34192D01*
X47314Y-34154D01*
X47342Y-34135D01*
X47400Y-34135D01*
X47428Y-34154D01*
X47442Y-34192D01*
X47442Y-34230D01*
X47300Y-34268D01*
X47571Y-34401D02*
X47571Y-34135D01*
X47571Y-34211D02*
X47585Y-34173D01*
X47600Y-34154D01*
X47628Y-34135D01*
X47657Y-34135D01*
X47885Y-34401D02*
X47885Y-34192D01*
X47871Y-34154D01*
X47842Y-34135D01*
X47785Y-34135D01*
X47757Y-34154D01*
X47885Y-34382D02*
X47857Y-34401D01*
X47785Y-34401D01*
X47757Y-34382D01*
X47742Y-34344D01*
X47742Y-34306D01*
X47757Y-34268D01*
X47785Y-34249D01*
X47857Y-34249D01*
X47885Y-34230D01*
X47985Y-34135D02*
X48100Y-34135D01*
X48028Y-34001D02*
X48028Y-34344D01*
X48042Y-34382D01*
X48071Y-34401D01*
X48100Y-34401D01*
X48242Y-34401D02*
X48214Y-34382D01*
X48200Y-34363D01*
X48185Y-34325D01*
X48185Y-34211D01*
X48200Y-34173D01*
X48214Y-34154D01*
X48242Y-34135D01*
X48285Y-34135D01*
X48314Y-34154D01*
X48328Y-34173D01*
X48342Y-34211D01*
X48342Y-34325D01*
X48328Y-34363D01*
X48314Y-34382D01*
X48285Y-34401D01*
X48242Y-34401D01*
X48471Y-34401D02*
X48471Y-34135D01*
X48471Y-34211D02*
X48485Y-34173D01*
X48500Y-34154D01*
X48528Y-34135D01*
X48557Y-34135D01*
G54D12*
X48000Y-31500D02*
X48500Y-32000D01*
X48000Y-31250D02*
X48000Y-31750D01*
X47250Y-31250D02*
X47750Y-31750D01*
X47750Y-31500D02*
X47750Y-32000D01*
X47250Y-31000D02*
X47250Y-31500D01*
X46750Y-32000D02*
X46250Y-32000D01*
X47250Y-31500D02*
X46750Y-32000D01*
X47750Y-32000D02*
X47250Y-31500D01*
X48000Y-31750D02*
X47750Y-32000D01*
X48250Y-32000D02*
X48000Y-31750D01*
X48750Y-32000D02*
X48250Y-32000D01*
X48000Y-31250D02*
X48750Y-32000D01*
X47750Y-31500D02*
X48000Y-31250D01*
X47250Y-31000D02*
X47750Y-31500D01*
X46250Y-32000D02*
X47250Y-31000D01*
G54D11*
X40421Y-32780D02*
X40392Y-32761D01*
X40350Y-32761D01*
X40307Y-32780D01*
X40278Y-32819D01*
X40264Y-32857D01*
X40250Y-32933D01*
X40250Y-32990D01*
X40264Y-33066D01*
X40278Y-33104D01*
X40307Y-33142D01*
X40350Y-33161D01*
X40378Y-33161D01*
X40421Y-33142D01*
X40435Y-33123D01*
X40435Y-32990D01*
X40378Y-32990D01*
X40564Y-33161D02*
X40564Y-32761D01*
X40735Y-33161D01*
X40735Y-32761D01*
X40878Y-33161D02*
X40878Y-32761D01*
X40950Y-32761D01*
X40992Y-32780D01*
X41021Y-32819D01*
X41035Y-32857D01*
X41050Y-32933D01*
X41050Y-32990D01*
X41035Y-33066D01*
X41021Y-33104D01*
X40992Y-33142D01*
X40950Y-33161D01*
X40878Y-33161D01*
X53771Y-32780D02*
X53742Y-32761D01*
X53700Y-32761D01*
X53657Y-32780D01*
X53628Y-32819D01*
X53614Y-32857D01*
X53600Y-32933D01*
X53600Y-32990D01*
X53614Y-33066D01*
X53628Y-33104D01*
X53657Y-33142D01*
X53700Y-33161D01*
X53728Y-33161D01*
X53771Y-33142D01*
X53785Y-33123D01*
X53785Y-32990D01*
X53728Y-32990D01*
X53914Y-33161D02*
X53914Y-32761D01*
X54085Y-33161D01*
X54085Y-32761D01*
X54228Y-33161D02*
X54228Y-32761D01*
X54300Y-32761D01*
X54342Y-32780D01*
X54371Y-32819D01*
X54385Y-32857D01*
X54400Y-32933D01*
X54400Y-32990D01*
X54385Y-33066D01*
X54371Y-33104D01*
X54342Y-33142D01*
X54300Y-33161D01*
X54228Y-33161D01*
X52528Y-38761D02*
X52628Y-39161D01*
X52728Y-38761D01*
X52828Y-39161D02*
X52828Y-38761D01*
X52971Y-39161D02*
X52971Y-38761D01*
X53042Y-38761D01*
X53085Y-38780D01*
X53114Y-38819D01*
X53128Y-38857D01*
X53142Y-38933D01*
X53142Y-38990D01*
X53128Y-39066D01*
X53114Y-39104D01*
X53085Y-39142D01*
X53042Y-39161D01*
X52971Y-39161D01*
X52557Y-38142D02*
X52600Y-38161D01*
X52671Y-38161D01*
X52700Y-38142D01*
X52714Y-38123D01*
X52728Y-38085D01*
X52728Y-38047D01*
X52714Y-38009D01*
X52700Y-37990D01*
X52671Y-37971D01*
X52614Y-37952D01*
X52585Y-37933D01*
X52571Y-37914D01*
X52557Y-37876D01*
X52557Y-37838D01*
X52571Y-37800D01*
X52585Y-37780D01*
X52614Y-37761D01*
X52685Y-37761D01*
X52728Y-37780D01*
X52914Y-37971D02*
X52914Y-38161D01*
X52814Y-37761D02*
X52914Y-37971D01*
X53014Y-37761D01*
X53114Y-38161D02*
X53114Y-37761D01*
X53285Y-38161D01*
X53285Y-37761D01*
X52571Y-37161D02*
X52571Y-36761D01*
X52671Y-37047D01*
X52771Y-36761D01*
X52771Y-37161D01*
X53071Y-37161D02*
X52900Y-37161D01*
X52985Y-37161D02*
X52985Y-36761D01*
X52957Y-36819D01*
X52928Y-36857D01*
X52900Y-36876D01*
X52714Y-35761D02*
X52571Y-35761D01*
X52557Y-35952D01*
X52571Y-35933D01*
X52600Y-35914D01*
X52671Y-35914D01*
X52700Y-35933D01*
X52714Y-35952D01*
X52728Y-35990D01*
X52728Y-36085D01*
X52714Y-36123D01*
X52700Y-36142D01*
X52671Y-36161D01*
X52600Y-36161D01*
X52571Y-36142D01*
X52557Y-36123D01*
X52814Y-35761D02*
X52914Y-36161D01*
X53014Y-35761D01*
G54D13*
X43500Y-36400D02*
X41500Y-36400D01*
X43600Y-35700D02*
X43600Y-36300D01*
X41500Y-35600D02*
X43500Y-35600D01*
X41400Y-36300D02*
X41400Y-35700D01*
X43500Y-36400D02*
G75*
G03X43600Y-36300I0J100D01*
G74*
G01*
X43600Y-35700D02*
G75*
G03X43500Y-35600I-100J0D01*
G74*
G01*
X41400Y-36300D02*
G75*
G03X41500Y-36400I100J0D01*
G74*
G01*
X41500Y-35600D02*
G75*
G03X41400Y-35700I0J-100D01*
G74*
G01*
X43600Y-36000D02*
X44000Y-36000D01*
X41000Y-36000D02*
X41400Y-36000D01*
X41500Y-36600D02*
X43500Y-36600D01*
X41400Y-37300D02*
X41400Y-36700D01*
X43500Y-37400D02*
X41500Y-37400D01*
X43600Y-36700D02*
X43600Y-37300D01*
X41500Y-36600D02*
G75*
G03X41400Y-36700I0J-100D01*
G74*
G01*
X41400Y-37300D02*
G75*
G03X41500Y-37400I100J0D01*
G74*
G01*
X43600Y-36700D02*
G75*
G03X43500Y-36600I-100J0D01*
G74*
G01*
X43500Y-37400D02*
G75*
G03X43600Y-37300I0J100D01*
G74*
G01*
X41400Y-37000D02*
X41000Y-37000D01*
X44000Y-37000D02*
X43600Y-37000D01*
X45500Y-36600D02*
X47500Y-36600D01*
X45400Y-37300D02*
X45400Y-36700D01*
X47500Y-37400D02*
X45500Y-37400D01*
X47600Y-36700D02*
X47600Y-37300D01*
X45500Y-36600D02*
G75*
G03X45400Y-36700I0J-100D01*
G74*
G01*
X45400Y-37300D02*
G75*
G03X45500Y-37400I100J0D01*
G74*
G01*
X47600Y-36700D02*
G75*
G03X47500Y-36600I-100J0D01*
G74*
G01*
X47500Y-37400D02*
G75*
G03X47600Y-37300I0J100D01*
G74*
G01*
X45400Y-37000D02*
X45000Y-37000D01*
X48000Y-37000D02*
X47600Y-37000D01*
X43500Y-35400D02*
X41500Y-35400D01*
X43600Y-34700D02*
X43600Y-35300D01*
X41500Y-34600D02*
X43500Y-34600D01*
X41400Y-35300D02*
X41400Y-34700D01*
X43500Y-35400D02*
G75*
G03X43600Y-35300I0J100D01*
G74*
G01*
X43600Y-34700D02*
G75*
G03X43500Y-34600I-100J0D01*
G74*
G01*
X41400Y-35300D02*
G75*
G03X41500Y-35400I100J0D01*
G74*
G01*
X41500Y-34600D02*
G75*
G03X41400Y-34700I0J-100D01*
G74*
G01*
X43600Y-35000D02*
X44000Y-35000D01*
X41000Y-35000D02*
X41400Y-35000D01*
X47500Y-35400D02*
X45500Y-35400D01*
X47600Y-34700D02*
X47600Y-35300D01*
X45500Y-34600D02*
X47500Y-34600D01*
X45400Y-35300D02*
X45400Y-34700D01*
X47500Y-35400D02*
G75*
G03X47600Y-35300I0J100D01*
G74*
G01*
X47600Y-34700D02*
G75*
G03X47500Y-34600I-100J0D01*
G74*
G01*
X45400Y-35300D02*
G75*
G03X45500Y-35400I100J0D01*
G74*
G01*
X45500Y-34600D02*
G75*
G03X45400Y-34700I0J-100D01*
G74*
G01*
X47600Y-35000D02*
X48000Y-35000D01*
X45000Y-35000D02*
X45400Y-35000D01*
X47500Y-36400D02*
X45500Y-36400D01*
X47600Y-35700D02*
X47600Y-36300D01*
X45500Y-35600D02*
X47500Y-35600D01*
X45400Y-36300D02*
X45400Y-35700D01*
X47500Y-36400D02*
G75*
G03X47600Y-36300I0J100D01*
G74*
G01*
X47600Y-35700D02*
G75*
G03X47500Y-35600I-100J0D01*
G74*
G01*
X45400Y-36300D02*
G75*
G03X45500Y-36400I100J0D01*
G74*
G01*
X45500Y-35600D02*
G75*
G03X45400Y-35700I0J-100D01*
G74*
G01*
X47600Y-36000D02*
X48000Y-36000D01*
X45000Y-36000D02*
X45400Y-36000D01*
X52600Y-33500D02*
X52600Y-31500D01*
X53300Y-33600D02*
X52700Y-33600D01*
X53400Y-31500D02*
X53400Y-33500D01*
X52700Y-31400D02*
X53300Y-31400D01*
X52600Y-33500D02*
G75*
G03X52700Y-33600I100J0D01*
G74*
G01*
X53300Y-33600D02*
G75*
G03X53400Y-33500I0J100D01*
G74*
G01*
X52700Y-31400D02*
G75*
G03X52600Y-31500I0J-100D01*
G74*
G01*
X53400Y-31500D02*
G75*
G03X53300Y-31400I-100J0D01*
G74*
G01*
X53000Y-33600D02*
X53000Y-34000D01*
X53000Y-31000D02*
X53000Y-31400D01*
X50100Y-32000D02*
G75*
G03X50500Y-32400I400J0D01*
G74*
G01*
X50500Y-32400D02*
G75*
G03X50900Y-32000I0J400D01*
G74*
G01*
X51500Y-40000D02*
X51500Y-32000D01*
X51500Y-32000D02*
X49500Y-32000D01*
X49500Y-32000D02*
X49500Y-40000D01*
X49500Y-40000D02*
X51500Y-40000D01*
X49100Y-30800D02*
X49100Y-31200D01*
X51700Y-30600D02*
X49300Y-30600D01*
X51700Y-31400D02*
X49300Y-31400D01*
X49300Y-30600D02*
G75*
G03X49100Y-30800I0J-200D01*
G74*
G01*
X49100Y-31200D02*
G75*
G03X49300Y-31400I200J0D01*
G74*
G01*
X51900Y-30800D02*
G75*
G03X51700Y-30600I-200J0D01*
G74*
G01*
X51700Y-31400D02*
G75*
G03X51900Y-31200I0J200D01*
G74*
G01*
X51900Y-30800D02*
X51900Y-31200D01*
X41000Y-39950D02*
X40350Y-39950D01*
X40350Y-38050D02*
X41000Y-38050D01*
X41000Y-39950D02*
G75*
G03X41950Y-39000I0J950D01*
G74*
G01*
X41950Y-39000D02*
G75*
G03X41000Y-38050I-950J0D01*
G74*
G01*
X40350Y-38050D02*
X40350Y-39950D01*
X45000Y-39950D02*
X44350Y-39950D01*
X44350Y-38050D02*
X45000Y-38050D01*
X45000Y-39950D02*
G75*
G03X45950Y-39000I0J950D01*
G74*
G01*
X45950Y-39000D02*
G75*
G03X45000Y-38050I-950J0D01*
G74*
G01*
X44350Y-38050D02*
X44350Y-39950D01*
X43000Y-39950D02*
X42350Y-39950D01*
X42350Y-38050D02*
X43000Y-38050D01*
X43000Y-39950D02*
G75*
G03X43950Y-39000I0J950D01*
G74*
G01*
X43950Y-39000D02*
G75*
G03X43000Y-38050I-950J0D01*
G74*
G01*
X42350Y-38050D02*
X42350Y-39950D01*
X47000Y-39950D02*
X46350Y-39950D01*
X46350Y-38050D02*
X47000Y-38050D01*
X47000Y-39950D02*
G75*
G03X47950Y-39000I0J950D01*
G74*
G01*
X47950Y-39000D02*
G75*
G03X47000Y-38050I-950J0D01*
G74*
G01*
X46350Y-38050D02*
X46350Y-39950D01*
G54D10*
X45650Y-31000D02*
X45650Y-27900D01*
X45650Y-27900D02*
X42350Y-27900D01*
X42350Y-27900D02*
X42350Y-31000D01*
X46050Y-31000D02*
X46050Y-33650D01*
X46050Y-33650D02*
X41950Y-33650D01*
X41950Y-33650D02*
X41950Y-31000D01*
X46050Y-31000D02*
X41950Y-31000D01*
G54D13*
X54500Y-35500D02*
X54500Y-39500D01*
X53500Y-35500D02*
X53500Y-39500D01*
X53500Y-39500D02*
X54500Y-39500D01*
X54500Y-35500D02*
X53500Y-35500D01*
X40500Y-34500D02*
X41500Y-34500D01*
X40500Y-33500D02*
X41500Y-33500D01*
X40500Y-33500D02*
X40500Y-34500D01*
X41500Y-34500D02*
X41500Y-33500D01*
X53500Y-34500D02*
X54500Y-34500D01*
X53500Y-33500D02*
X54500Y-33500D01*
X53500Y-33500D02*
X53500Y-34500D01*
X54500Y-34500D02*
X54500Y-33500D01*
G54D14*
X41933Y-36161D02*
X41800Y-35971D01*
X41704Y-36161D02*
X41704Y-35761D01*
X41857Y-35761D01*
X41895Y-35780D01*
X41914Y-35800D01*
X41933Y-35838D01*
X41933Y-35895D01*
X41914Y-35933D01*
X41895Y-35952D01*
X41857Y-35971D01*
X41704Y-35971D01*
X42314Y-36161D02*
X42085Y-36161D01*
X42200Y-36161D02*
X42200Y-35761D01*
X42161Y-35819D01*
X42123Y-35857D01*
X42085Y-35876D01*
G54D11*
X42609Y-35800D02*
X42626Y-35780D01*
X42657Y-35761D01*
X42728Y-35761D01*
X42755Y-35780D01*
X42766Y-35800D01*
X42776Y-35838D01*
X42771Y-35876D01*
X42750Y-35933D01*
X42550Y-36161D01*
X42736Y-36161D01*
X42869Y-36123D02*
X42881Y-36142D01*
X42864Y-36161D01*
X42852Y-36142D01*
X42869Y-36123D01*
X42864Y-36161D01*
X43038Y-35800D02*
X43055Y-35780D01*
X43086Y-35761D01*
X43157Y-35761D01*
X43183Y-35780D01*
X43195Y-35800D01*
X43205Y-35838D01*
X43200Y-35876D01*
X43178Y-35933D01*
X42978Y-36161D01*
X43164Y-36161D01*
X43293Y-36161D02*
X43343Y-35761D01*
X43340Y-36009D02*
X43407Y-36161D01*
X43440Y-35895D02*
X43307Y-36047D01*
G54D14*
X41933Y-37161D02*
X41800Y-36971D01*
X41704Y-37161D02*
X41704Y-36761D01*
X41857Y-36761D01*
X41895Y-36780D01*
X41914Y-36800D01*
X41933Y-36838D01*
X41933Y-36895D01*
X41914Y-36933D01*
X41895Y-36952D01*
X41857Y-36971D01*
X41704Y-36971D01*
X42085Y-36800D02*
X42104Y-36780D01*
X42142Y-36761D01*
X42238Y-36761D01*
X42276Y-36780D01*
X42295Y-36800D01*
X42314Y-36838D01*
X42314Y-36876D01*
X42295Y-36933D01*
X42066Y-37161D01*
X42314Y-37161D01*
G54D11*
X42650Y-36761D02*
X42836Y-36761D01*
X42716Y-36914D01*
X42759Y-36914D01*
X42786Y-36933D01*
X42797Y-36952D01*
X42807Y-36990D01*
X42795Y-37085D01*
X42776Y-37123D01*
X42759Y-37142D01*
X42728Y-37161D01*
X42643Y-37161D01*
X42616Y-37142D01*
X42605Y-37123D01*
X42936Y-36761D02*
X43121Y-36761D01*
X43002Y-36914D01*
X43045Y-36914D01*
X43071Y-36933D01*
X43083Y-36952D01*
X43093Y-36990D01*
X43081Y-37085D01*
X43062Y-37123D01*
X43045Y-37142D01*
X43014Y-37161D01*
X42928Y-37161D01*
X42902Y-37142D01*
X42890Y-37123D01*
X43307Y-36761D02*
X43336Y-36761D01*
X43362Y-36780D01*
X43374Y-36800D01*
X43383Y-36838D01*
X43388Y-36914D01*
X43376Y-37009D01*
X43352Y-37085D01*
X43333Y-37123D01*
X43316Y-37142D01*
X43286Y-37161D01*
X43257Y-37161D01*
X43231Y-37142D01*
X43219Y-37123D01*
X43209Y-37085D01*
X43205Y-37009D01*
X43216Y-36914D01*
X43240Y-36838D01*
X43259Y-36800D01*
X43276Y-36780D01*
X43307Y-36761D01*
G54D14*
X45933Y-37161D02*
X45800Y-36971D01*
X45704Y-37161D02*
X45704Y-36761D01*
X45857Y-36761D01*
X45895Y-36780D01*
X45914Y-36800D01*
X45933Y-36838D01*
X45933Y-36895D01*
X45914Y-36933D01*
X45895Y-36952D01*
X45857Y-36971D01*
X45704Y-36971D01*
X46066Y-36761D02*
X46314Y-36761D01*
X46180Y-36914D01*
X46238Y-36914D01*
X46276Y-36933D01*
X46295Y-36952D01*
X46314Y-36990D01*
X46314Y-37085D01*
X46295Y-37123D01*
X46276Y-37142D01*
X46238Y-37161D01*
X46123Y-37161D01*
X46085Y-37142D01*
X46066Y-37123D01*
G54D11*
X47200Y-37161D02*
X47028Y-37161D01*
X47114Y-37161D02*
X47164Y-36761D01*
X47128Y-36819D01*
X47095Y-36857D01*
X47064Y-36876D01*
X47328Y-37161D02*
X47378Y-36761D01*
X47376Y-37009D02*
X47443Y-37161D01*
X47476Y-36895D02*
X47343Y-37047D01*
G54D14*
X41933Y-35161D02*
X41800Y-34971D01*
X41704Y-35161D02*
X41704Y-34761D01*
X41857Y-34761D01*
X41895Y-34780D01*
X41914Y-34800D01*
X41933Y-34838D01*
X41933Y-34895D01*
X41914Y-34933D01*
X41895Y-34952D01*
X41857Y-34971D01*
X41704Y-34971D01*
X42276Y-34895D02*
X42276Y-35161D01*
X42180Y-34742D02*
X42085Y-35028D01*
X42333Y-35028D01*
G54D11*
X42786Y-35161D02*
X42614Y-35161D01*
X42700Y-35161D02*
X42750Y-34761D01*
X42714Y-34819D01*
X42681Y-34857D01*
X42650Y-34876D01*
X43107Y-34761D02*
X42964Y-34761D01*
X42926Y-34952D01*
X42943Y-34933D01*
X42974Y-34914D01*
X43045Y-34914D01*
X43071Y-34933D01*
X43083Y-34952D01*
X43093Y-34990D01*
X43081Y-35085D01*
X43062Y-35123D01*
X43045Y-35142D01*
X43014Y-35161D01*
X42943Y-35161D01*
X42916Y-35142D01*
X42905Y-35123D01*
X43307Y-34761D02*
X43336Y-34761D01*
X43362Y-34780D01*
X43374Y-34800D01*
X43383Y-34838D01*
X43388Y-34914D01*
X43376Y-35009D01*
X43352Y-35085D01*
X43333Y-35123D01*
X43316Y-35142D01*
X43286Y-35161D01*
X43257Y-35161D01*
X43231Y-35142D01*
X43219Y-35123D01*
X43209Y-35085D01*
X43205Y-35009D01*
X43216Y-34914D01*
X43240Y-34838D01*
X43259Y-34800D01*
X43276Y-34780D01*
X43307Y-34761D01*
G54D14*
X45933Y-35161D02*
X45800Y-34971D01*
X45704Y-35161D02*
X45704Y-34761D01*
X45857Y-34761D01*
X45895Y-34780D01*
X45914Y-34800D01*
X45933Y-34838D01*
X45933Y-34895D01*
X45914Y-34933D01*
X45895Y-34952D01*
X45857Y-34971D01*
X45704Y-34971D01*
X46295Y-34761D02*
X46104Y-34761D01*
X46085Y-34952D01*
X46104Y-34933D01*
X46142Y-34914D01*
X46238Y-34914D01*
X46276Y-34933D01*
X46295Y-34952D01*
X46314Y-34990D01*
X46314Y-35085D01*
X46295Y-35123D01*
X46276Y-35142D01*
X46238Y-35161D01*
X46142Y-35161D01*
X46104Y-35142D01*
X46085Y-35123D01*
G54D11*
X46786Y-35161D02*
X46614Y-35161D01*
X46700Y-35161D02*
X46750Y-34761D01*
X46714Y-34819D01*
X46681Y-34857D01*
X46650Y-34876D01*
X47107Y-34761D02*
X46964Y-34761D01*
X46926Y-34952D01*
X46943Y-34933D01*
X46974Y-34914D01*
X47045Y-34914D01*
X47071Y-34933D01*
X47083Y-34952D01*
X47093Y-34990D01*
X47081Y-35085D01*
X47062Y-35123D01*
X47045Y-35142D01*
X47014Y-35161D01*
X46943Y-35161D01*
X46916Y-35142D01*
X46905Y-35123D01*
X47307Y-34761D02*
X47336Y-34761D01*
X47362Y-34780D01*
X47374Y-34800D01*
X47383Y-34838D01*
X47388Y-34914D01*
X47376Y-35009D01*
X47352Y-35085D01*
X47333Y-35123D01*
X47316Y-35142D01*
X47286Y-35161D01*
X47257Y-35161D01*
X47231Y-35142D01*
X47219Y-35123D01*
X47209Y-35085D01*
X47205Y-35009D01*
X47216Y-34914D01*
X47240Y-34838D01*
X47259Y-34800D01*
X47276Y-34780D01*
X47307Y-34761D01*
G54D14*
X45933Y-36161D02*
X45800Y-35971D01*
X45704Y-36161D02*
X45704Y-35761D01*
X45857Y-35761D01*
X45895Y-35780D01*
X45914Y-35800D01*
X45933Y-35838D01*
X45933Y-35895D01*
X45914Y-35933D01*
X45895Y-35952D01*
X45857Y-35971D01*
X45704Y-35971D01*
X46276Y-35761D02*
X46200Y-35761D01*
X46161Y-35780D01*
X46142Y-35800D01*
X46104Y-35857D01*
X46085Y-35933D01*
X46085Y-36085D01*
X46104Y-36123D01*
X46123Y-36142D01*
X46161Y-36161D01*
X46238Y-36161D01*
X46276Y-36142D01*
X46295Y-36123D01*
X46314Y-36085D01*
X46314Y-35990D01*
X46295Y-35952D01*
X46276Y-35933D01*
X46238Y-35914D01*
X46161Y-35914D01*
X46123Y-35933D01*
X46104Y-35952D01*
X46085Y-35990D01*
G54D11*
X46740Y-35895D02*
X46707Y-36161D01*
X46688Y-35742D02*
X46581Y-36028D01*
X46766Y-36028D01*
X46869Y-36123D02*
X46881Y-36142D01*
X46864Y-36161D01*
X46852Y-36142D01*
X46869Y-36123D01*
X46864Y-36161D01*
X47028Y-35761D02*
X47228Y-35761D01*
X47050Y-36161D01*
X47293Y-36161D02*
X47343Y-35761D01*
X47340Y-36009D02*
X47407Y-36161D01*
X47440Y-35895D02*
X47307Y-36047D01*
G54D14*
X53161Y-33066D02*
X52971Y-33199D01*
X53161Y-33295D02*
X52761Y-33295D01*
X52761Y-33142D01*
X52780Y-33104D01*
X52800Y-33085D01*
X52838Y-33066D01*
X52895Y-33066D01*
X52933Y-33085D01*
X52952Y-33104D01*
X52971Y-33142D01*
X52971Y-33295D01*
X52761Y-32933D02*
X52761Y-32666D01*
X53161Y-32838D01*
G54D11*
X53161Y-31799D02*
X53161Y-31971D01*
X53161Y-31885D02*
X52761Y-31835D01*
X52819Y-31871D01*
X52857Y-31904D01*
X52876Y-31935D01*
X53161Y-31671D02*
X52761Y-31621D01*
X53009Y-31623D02*
X53161Y-31556D01*
X52895Y-31523D02*
X53047Y-31656D01*
G54D13*
X48869Y-40202D02*
X48869Y-40607D01*
X48892Y-40654D01*
X48916Y-40678D01*
X48964Y-40702D01*
X49059Y-40702D01*
X49107Y-40678D01*
X49130Y-40654D01*
X49154Y-40607D01*
X49154Y-40202D01*
X49654Y-40702D02*
X49369Y-40702D01*
X49511Y-40702D02*
X49511Y-40202D01*
X49464Y-40273D01*
X49416Y-40321D01*
X49369Y-40345D01*
G54D14*
X50236Y-40202D02*
X50502Y-40202D01*
X50269Y-40702D01*
X50805Y-40369D02*
X50764Y-40702D01*
X50734Y-40178D02*
X50594Y-40535D01*
X50842Y-40535D01*
X51164Y-40702D02*
X50973Y-40702D01*
X51036Y-40202D01*
X51281Y-40678D02*
X51335Y-40702D01*
X51430Y-40702D01*
X51472Y-40678D01*
X51494Y-40654D01*
X51519Y-40607D01*
X51525Y-40559D01*
X51511Y-40511D01*
X51495Y-40488D01*
X51460Y-40464D01*
X51387Y-40440D01*
X51352Y-40416D01*
X51336Y-40392D01*
X51323Y-40345D01*
X51329Y-40297D01*
X51354Y-40250D01*
X51376Y-40226D01*
X51417Y-40202D01*
X51512Y-40202D01*
X51566Y-40226D01*
X51702Y-40202D02*
X51969Y-40202D01*
X51735Y-40702D01*
X52272Y-40369D02*
X52230Y-40702D01*
X52201Y-40178D02*
X52061Y-40535D01*
X52308Y-40535D01*
X48433Y-31123D02*
X48414Y-31142D01*
X48357Y-31161D01*
X48319Y-31161D01*
X48261Y-31142D01*
X48223Y-31104D01*
X48204Y-31066D01*
X48185Y-30990D01*
X48185Y-30933D01*
X48204Y-30857D01*
X48223Y-30819D01*
X48261Y-30780D01*
X48319Y-30761D01*
X48357Y-30761D01*
X48414Y-30780D01*
X48433Y-30800D01*
X48814Y-31161D02*
X48585Y-31161D01*
X48700Y-31161D02*
X48700Y-30761D01*
X48661Y-30819D01*
X48623Y-30857D01*
X48585Y-30876D01*
G54D11*
X50043Y-30761D02*
X50071Y-30761D01*
X50097Y-30780D01*
X50109Y-30800D01*
X50119Y-30838D01*
X50124Y-30914D01*
X50112Y-31009D01*
X50088Y-31085D01*
X50069Y-31123D01*
X50052Y-31142D01*
X50021Y-31161D01*
X49993Y-31161D01*
X49966Y-31142D01*
X49955Y-31123D01*
X49945Y-31085D01*
X49940Y-31009D01*
X49952Y-30914D01*
X49976Y-30838D01*
X49995Y-30800D01*
X50012Y-30780D01*
X50043Y-30761D01*
X50226Y-31123D02*
X50238Y-31142D01*
X50221Y-31161D01*
X50209Y-31142D01*
X50226Y-31123D01*
X50221Y-31161D01*
X50521Y-31161D02*
X50350Y-31161D01*
X50436Y-31161D02*
X50486Y-30761D01*
X50450Y-30819D01*
X50416Y-30857D01*
X50386Y-30876D01*
X50812Y-30895D02*
X50778Y-31161D01*
X50683Y-30895D02*
X50657Y-31104D01*
X50666Y-31142D01*
X50693Y-31161D01*
X50736Y-31161D01*
X50766Y-31142D01*
X50783Y-31123D01*
X51047Y-30952D02*
X50947Y-30952D01*
X50921Y-31161D02*
X50971Y-30761D01*
X51114Y-30761D01*
G54D14*
X41711Y-38050D02*
X41673Y-38030D01*
X41635Y-37992D01*
X41578Y-37935D01*
X41540Y-37916D01*
X41502Y-37916D01*
X41521Y-38011D02*
X41483Y-37992D01*
X41445Y-37954D01*
X41426Y-37878D01*
X41426Y-37745D01*
X41445Y-37669D01*
X41483Y-37630D01*
X41521Y-37611D01*
X41597Y-37611D01*
X41635Y-37630D01*
X41673Y-37669D01*
X41692Y-37745D01*
X41692Y-37878D01*
X41673Y-37954D01*
X41635Y-37992D01*
X41597Y-38011D01*
X41521Y-38011D01*
X42073Y-38011D02*
X41845Y-38011D01*
X41959Y-38011D02*
X41959Y-37611D01*
X41921Y-37669D01*
X41883Y-37707D01*
X41845Y-37726D01*
G54D11*
X40416Y-40450D02*
X40433Y-40430D01*
X40464Y-40411D01*
X40536Y-40411D01*
X40562Y-40430D01*
X40574Y-40450D01*
X40583Y-40488D01*
X40578Y-40526D01*
X40557Y-40583D01*
X40357Y-40811D01*
X40543Y-40811D01*
X40671Y-40811D02*
X40721Y-40411D01*
X40843Y-40811D01*
X40893Y-40411D01*
X41007Y-40411D02*
X41193Y-40411D01*
X41074Y-40564D01*
X41116Y-40564D01*
X41143Y-40583D01*
X41155Y-40602D01*
X41164Y-40640D01*
X41152Y-40735D01*
X41133Y-40773D01*
X41116Y-40792D01*
X41086Y-40811D01*
X41000Y-40811D01*
X40974Y-40792D01*
X40962Y-40773D01*
X41286Y-40811D02*
X41343Y-40811D01*
X41374Y-40792D01*
X41390Y-40773D01*
X41426Y-40716D01*
X41450Y-40640D01*
X41469Y-40488D01*
X41459Y-40450D01*
X41447Y-40430D01*
X41421Y-40411D01*
X41364Y-40411D01*
X41333Y-40430D01*
X41316Y-40450D01*
X41297Y-40488D01*
X41286Y-40583D01*
X41295Y-40621D01*
X41307Y-40640D01*
X41333Y-40659D01*
X41390Y-40659D01*
X41421Y-40640D01*
X41438Y-40621D01*
X41457Y-40583D01*
X41664Y-40411D02*
X41693Y-40411D01*
X41719Y-40430D01*
X41731Y-40450D01*
X41740Y-40488D01*
X41745Y-40564D01*
X41733Y-40659D01*
X41709Y-40735D01*
X41690Y-40773D01*
X41674Y-40792D01*
X41643Y-40811D01*
X41614Y-40811D01*
X41588Y-40792D01*
X41576Y-40773D01*
X41566Y-40735D01*
X41562Y-40659D01*
X41574Y-40564D01*
X41597Y-40488D01*
X41616Y-40450D01*
X41633Y-40430D01*
X41664Y-40411D01*
X42005Y-40545D02*
X41971Y-40811D01*
X41952Y-40392D02*
X41845Y-40678D01*
X42031Y-40678D01*
G54D14*
X45711Y-38050D02*
X45673Y-38030D01*
X45635Y-37992D01*
X45578Y-37935D01*
X45540Y-37916D01*
X45502Y-37916D01*
X45521Y-38011D02*
X45483Y-37992D01*
X45445Y-37954D01*
X45426Y-37878D01*
X45426Y-37745D01*
X45445Y-37669D01*
X45483Y-37630D01*
X45521Y-37611D01*
X45597Y-37611D01*
X45635Y-37630D01*
X45673Y-37669D01*
X45692Y-37745D01*
X45692Y-37878D01*
X45673Y-37954D01*
X45635Y-37992D01*
X45597Y-38011D01*
X45521Y-38011D01*
X45826Y-37611D02*
X46073Y-37611D01*
X45940Y-37764D01*
X45997Y-37764D01*
X46035Y-37783D01*
X46054Y-37802D01*
X46073Y-37840D01*
X46073Y-37935D01*
X46054Y-37973D01*
X46035Y-37992D01*
X45997Y-38011D01*
X45883Y-38011D01*
X45845Y-37992D01*
X45826Y-37973D01*
G54D11*
X44416Y-40450D02*
X44433Y-40430D01*
X44464Y-40411D01*
X44536Y-40411D01*
X44562Y-40430D01*
X44574Y-40450D01*
X44583Y-40488D01*
X44578Y-40526D01*
X44557Y-40583D01*
X44357Y-40811D01*
X44543Y-40811D01*
X44671Y-40811D02*
X44721Y-40411D01*
X44843Y-40811D01*
X44893Y-40411D01*
X45007Y-40411D02*
X45193Y-40411D01*
X45074Y-40564D01*
X45116Y-40564D01*
X45143Y-40583D01*
X45155Y-40602D01*
X45164Y-40640D01*
X45152Y-40735D01*
X45133Y-40773D01*
X45116Y-40792D01*
X45086Y-40811D01*
X45000Y-40811D01*
X44974Y-40792D01*
X44962Y-40773D01*
X45286Y-40811D02*
X45343Y-40811D01*
X45374Y-40792D01*
X45390Y-40773D01*
X45426Y-40716D01*
X45450Y-40640D01*
X45469Y-40488D01*
X45459Y-40450D01*
X45447Y-40430D01*
X45421Y-40411D01*
X45364Y-40411D01*
X45333Y-40430D01*
X45316Y-40450D01*
X45297Y-40488D01*
X45286Y-40583D01*
X45295Y-40621D01*
X45307Y-40640D01*
X45333Y-40659D01*
X45390Y-40659D01*
X45421Y-40640D01*
X45438Y-40621D01*
X45457Y-40583D01*
X45664Y-40411D02*
X45693Y-40411D01*
X45719Y-40430D01*
X45731Y-40450D01*
X45740Y-40488D01*
X45745Y-40564D01*
X45733Y-40659D01*
X45709Y-40735D01*
X45690Y-40773D01*
X45674Y-40792D01*
X45643Y-40811D01*
X45614Y-40811D01*
X45588Y-40792D01*
X45576Y-40773D01*
X45566Y-40735D01*
X45562Y-40659D01*
X45574Y-40564D01*
X45597Y-40488D01*
X45616Y-40450D01*
X45633Y-40430D01*
X45664Y-40411D01*
X46021Y-40411D02*
X45964Y-40411D01*
X45933Y-40430D01*
X45916Y-40450D01*
X45881Y-40507D01*
X45857Y-40583D01*
X45838Y-40735D01*
X45847Y-40773D01*
X45859Y-40792D01*
X45886Y-40811D01*
X45943Y-40811D01*
X45974Y-40792D01*
X45990Y-40773D01*
X46009Y-40735D01*
X46021Y-40640D01*
X46012Y-40602D01*
X46000Y-40583D01*
X45974Y-40564D01*
X45916Y-40564D01*
X45886Y-40583D01*
X45869Y-40602D01*
X45850Y-40640D01*
G54D14*
X43711Y-38050D02*
X43673Y-38030D01*
X43635Y-37992D01*
X43578Y-37935D01*
X43540Y-37916D01*
X43502Y-37916D01*
X43521Y-38011D02*
X43483Y-37992D01*
X43445Y-37954D01*
X43426Y-37878D01*
X43426Y-37745D01*
X43445Y-37669D01*
X43483Y-37630D01*
X43521Y-37611D01*
X43597Y-37611D01*
X43635Y-37630D01*
X43673Y-37669D01*
X43692Y-37745D01*
X43692Y-37878D01*
X43673Y-37954D01*
X43635Y-37992D01*
X43597Y-38011D01*
X43521Y-38011D01*
X43845Y-37650D02*
X43864Y-37630D01*
X43902Y-37611D01*
X43997Y-37611D01*
X44035Y-37630D01*
X44054Y-37650D01*
X44073Y-37688D01*
X44073Y-37726D01*
X44054Y-37783D01*
X43826Y-38011D01*
X44073Y-38011D01*
G54D11*
X42416Y-40450D02*
X42433Y-40430D01*
X42464Y-40411D01*
X42536Y-40411D01*
X42562Y-40430D01*
X42574Y-40450D01*
X42583Y-40488D01*
X42578Y-40526D01*
X42557Y-40583D01*
X42357Y-40811D01*
X42543Y-40811D01*
X42671Y-40811D02*
X42721Y-40411D01*
X42843Y-40811D01*
X42893Y-40411D01*
X43007Y-40411D02*
X43193Y-40411D01*
X43074Y-40564D01*
X43116Y-40564D01*
X43143Y-40583D01*
X43155Y-40602D01*
X43164Y-40640D01*
X43152Y-40735D01*
X43133Y-40773D01*
X43116Y-40792D01*
X43086Y-40811D01*
X43000Y-40811D01*
X42974Y-40792D01*
X42962Y-40773D01*
X43286Y-40811D02*
X43343Y-40811D01*
X43374Y-40792D01*
X43390Y-40773D01*
X43426Y-40716D01*
X43450Y-40640D01*
X43469Y-40488D01*
X43459Y-40450D01*
X43447Y-40430D01*
X43421Y-40411D01*
X43364Y-40411D01*
X43333Y-40430D01*
X43316Y-40450D01*
X43297Y-40488D01*
X43286Y-40583D01*
X43295Y-40621D01*
X43307Y-40640D01*
X43333Y-40659D01*
X43390Y-40659D01*
X43421Y-40640D01*
X43438Y-40621D01*
X43457Y-40583D01*
X43664Y-40411D02*
X43693Y-40411D01*
X43719Y-40430D01*
X43731Y-40450D01*
X43740Y-40488D01*
X43745Y-40564D01*
X43733Y-40659D01*
X43709Y-40735D01*
X43690Y-40773D01*
X43674Y-40792D01*
X43643Y-40811D01*
X43614Y-40811D01*
X43588Y-40792D01*
X43576Y-40773D01*
X43566Y-40735D01*
X43562Y-40659D01*
X43574Y-40564D01*
X43597Y-40488D01*
X43616Y-40450D01*
X43633Y-40430D01*
X43664Y-40411D01*
X44021Y-40411D02*
X43964Y-40411D01*
X43933Y-40430D01*
X43916Y-40450D01*
X43881Y-40507D01*
X43857Y-40583D01*
X43838Y-40735D01*
X43847Y-40773D01*
X43859Y-40792D01*
X43886Y-40811D01*
X43943Y-40811D01*
X43974Y-40792D01*
X43990Y-40773D01*
X44009Y-40735D01*
X44021Y-40640D01*
X44012Y-40602D01*
X44000Y-40583D01*
X43974Y-40564D01*
X43916Y-40564D01*
X43886Y-40583D01*
X43869Y-40602D01*
X43850Y-40640D01*
G54D14*
X47711Y-38050D02*
X47673Y-38030D01*
X47635Y-37992D01*
X47578Y-37935D01*
X47540Y-37916D01*
X47502Y-37916D01*
X47521Y-38011D02*
X47483Y-37992D01*
X47445Y-37954D01*
X47426Y-37878D01*
X47426Y-37745D01*
X47445Y-37669D01*
X47483Y-37630D01*
X47521Y-37611D01*
X47597Y-37611D01*
X47635Y-37630D01*
X47673Y-37669D01*
X47692Y-37745D01*
X47692Y-37878D01*
X47673Y-37954D01*
X47635Y-37992D01*
X47597Y-38011D01*
X47521Y-38011D01*
X48035Y-37745D02*
X48035Y-38011D01*
X47940Y-37592D02*
X47845Y-37878D01*
X48092Y-37878D01*
G54D11*
X46416Y-40450D02*
X46433Y-40430D01*
X46464Y-40411D01*
X46536Y-40411D01*
X46562Y-40430D01*
X46574Y-40450D01*
X46583Y-40488D01*
X46578Y-40526D01*
X46557Y-40583D01*
X46357Y-40811D01*
X46543Y-40811D01*
X46671Y-40811D02*
X46721Y-40411D01*
X46843Y-40811D01*
X46893Y-40411D01*
X47007Y-40411D02*
X47193Y-40411D01*
X47074Y-40564D01*
X47116Y-40564D01*
X47143Y-40583D01*
X47155Y-40602D01*
X47164Y-40640D01*
X47152Y-40735D01*
X47133Y-40773D01*
X47116Y-40792D01*
X47086Y-40811D01*
X47000Y-40811D01*
X46974Y-40792D01*
X46962Y-40773D01*
X47286Y-40811D02*
X47343Y-40811D01*
X47374Y-40792D01*
X47390Y-40773D01*
X47426Y-40716D01*
X47450Y-40640D01*
X47469Y-40488D01*
X47459Y-40450D01*
X47447Y-40430D01*
X47421Y-40411D01*
X47364Y-40411D01*
X47333Y-40430D01*
X47316Y-40450D01*
X47297Y-40488D01*
X47286Y-40583D01*
X47295Y-40621D01*
X47307Y-40640D01*
X47333Y-40659D01*
X47390Y-40659D01*
X47421Y-40640D01*
X47438Y-40621D01*
X47457Y-40583D01*
X47664Y-40411D02*
X47693Y-40411D01*
X47719Y-40430D01*
X47731Y-40450D01*
X47740Y-40488D01*
X47745Y-40564D01*
X47733Y-40659D01*
X47709Y-40735D01*
X47690Y-40773D01*
X47674Y-40792D01*
X47643Y-40811D01*
X47614Y-40811D01*
X47588Y-40792D01*
X47576Y-40773D01*
X47566Y-40735D01*
X47562Y-40659D01*
X47574Y-40564D01*
X47597Y-40488D01*
X47616Y-40450D01*
X47633Y-40430D01*
X47664Y-40411D01*
X48021Y-40411D02*
X47964Y-40411D01*
X47933Y-40430D01*
X47916Y-40450D01*
X47881Y-40507D01*
X47857Y-40583D01*
X47838Y-40735D01*
X47847Y-40773D01*
X47859Y-40792D01*
X47886Y-40811D01*
X47943Y-40811D01*
X47974Y-40792D01*
X47990Y-40773D01*
X48009Y-40735D01*
X48021Y-40640D01*
X48012Y-40602D01*
X48000Y-40583D01*
X47974Y-40564D01*
X47916Y-40564D01*
X47886Y-40583D01*
X47869Y-40602D01*
X47850Y-40640D01*
G54D14*
X42704Y-34211D02*
X42704Y-33811D01*
X42857Y-33811D01*
X42895Y-33830D01*
X42914Y-33850D01*
X42933Y-33888D01*
X42933Y-33945D01*
X42914Y-33983D01*
X42895Y-34002D01*
X42857Y-34021D01*
X42704Y-34021D01*
X43085Y-33850D02*
X43104Y-33830D01*
X43142Y-33811D01*
X43238Y-33811D01*
X43276Y-33830D01*
X43295Y-33850D01*
X43314Y-33888D01*
X43314Y-33926D01*
X43295Y-33983D01*
X43066Y-34211D01*
X43314Y-34211D01*
G54D11*
X44421Y-33811D02*
X44471Y-34211D01*
X44621Y-33811D01*
X44671Y-34211D02*
X44721Y-33811D01*
X44814Y-34211D02*
X44864Y-33811D01*
X44936Y-33811D01*
X44976Y-33830D01*
X45000Y-33869D01*
X45009Y-33907D01*
X45014Y-33983D01*
X45007Y-34040D01*
X44983Y-34116D01*
X44964Y-34154D01*
X44931Y-34192D01*
X44886Y-34211D01*
X44814Y-34211D01*
X45140Y-34002D02*
X45240Y-34002D01*
X45257Y-34211D02*
X45114Y-34211D01*
X45164Y-33811D01*
X45307Y-33811D01*
X45493Y-33811D02*
X45550Y-33811D01*
X45576Y-33830D01*
X45600Y-33869D01*
X45605Y-33945D01*
X45588Y-34078D01*
X45564Y-34154D01*
X45531Y-34192D01*
X45500Y-34211D01*
X45443Y-34211D01*
X45416Y-34192D01*
X45393Y-34154D01*
X45388Y-34078D01*
X45405Y-33945D01*
X45428Y-33869D01*
X45462Y-33830D01*
X45493Y-33811D01*
G54D14*
X53704Y-40161D02*
X53704Y-39761D01*
X53857Y-39761D01*
X53895Y-39780D01*
X53914Y-39800D01*
X53933Y-39838D01*
X53933Y-39895D01*
X53914Y-39933D01*
X53895Y-39952D01*
X53857Y-39971D01*
X53704Y-39971D01*
X54314Y-40161D02*
X54085Y-40161D01*
X54200Y-40161D02*
X54200Y-39761D01*
X54161Y-39819D01*
X54123Y-39857D01*
X54085Y-39876D01*
M02*
